<svg width="191" height="280" viewBox="0 0 191 280" fill="none" xmlns="http://www.w3.org/2000/svg">
<path d="M76.844 110.624C75.988 111.423 74.452 112.075 73.3386 111.468C70.3493 109.205 73.8133 99.1628 77.752 102.739C79.26 105.053 78.352 108.509 76.844 110.624ZM85.3733 94.6335C84.6493 93.7988 83.3013 93.9375 82.288 93.8121C80.2053 93.6748 78.5373 93.6095 76.5373 93.6922C68.264 94.2615 59.612 95.4868 52.392 99.7641C52.4173 99.7308 52.4426 99.7015 52.468 99.6668C49.8493 102.035 50.8947 105.908 51.412 108.911C53.3267 118.099 61.4706 126.203 71.2093 125.492C79.184 124.912 85.8627 118.421 86.8787 110.54C87.6133 105.156 87.9107 99.4881 85.3733 94.6335Z" fill="#FFF4EE"/>
<path d="M90.8547 130.239C90.9053 130.399 90.9093 130.447 91.0133 130.603C92.236 132.129 93.796 133.748 95.832 133.951C98.2027 134.032 99.9827 131.891 100.515 129.752C97.8067 131.937 93.7627 132.159 90.8547 130.239Z" fill="#FC9595"/>
<path d="M94.2733 154.172C93.072 154.253 85.696 152.771 83.0973 150.968C82.3413 152.043 81.4467 152.883 80.7987 151.856C79.8627 150.765 84.488 146.497 84.404 148.829C84.3253 148.949 84.22 149.132 84.0987 149.347C84.4187 149.621 84.712 149.955 84.9773 150.188C90.4453 154.036 99.3773 152.937 104.605 149.196C105.121 148.877 105.475 148.243 106.128 148.219C107.163 148.157 107.684 149.56 106.867 150.199C103.256 152.897 98.832 154.607 94.2733 154.172ZM101.169 131.723C100.312 134.213 97.6867 135.877 95.0707 135.181C92.2973 134.481 89.4787 132.003 89.5853 128.993C89.4187 128.728 89.464 128.317 89.82 128.257C91.2733 128.809 92.5733 130.001 94.2733 129.921C96.4867 130.003 98.6067 129.228 100.296 127.831C100.681 127.331 101.477 127.096 101.925 127.651C102.475 128.867 101.56 130.5 101.169 131.723ZM66.6213 128.208C60.084 127.056 54.3934 122.517 51.4267 116.628C50.0294 113.712 48.7187 110.385 48.2387 107.04C45.908 108.177 41.9134 110.105 41.2547 108.324C40.8454 107.024 45.5293 104.293 48.072 103.548C48.1347 102.507 48.3053 101.477 48.6093 100.471C53.756 92.2095 72.4413 90.3121 81.5067 90.4695C83.16 90.5495 84.904 90.5508 86.4333 91.2748C88.04 92.7762 89.0427 94.9348 89.6187 97.3868C90.3813 97.1161 91.1707 96.9401 91.7027 96.8695C92.716 96.8108 94.4627 96.3735 95.7947 96.5201C97.1253 96.3735 98.8733 96.8108 99.8867 96.8695C100.419 96.9401 101.207 97.1161 101.969 97.3868C102.547 94.9348 103.549 92.7762 105.156 91.2748C106.684 90.5508 108.429 90.5495 110.083 90.4695C119.148 90.3121 137.832 92.2095 142.979 100.471C143.284 101.477 143.455 102.507 143.516 103.548C146.06 104.293 150.744 107.024 150.333 108.324C149.676 110.105 145.68 108.177 143.348 107.04C142.871 110.385 141.56 113.712 140.163 116.628C137.196 122.517 131.505 127.056 124.968 128.208C115.329 130.056 104.88 123.708 102.505 114.097C101.699 110.532 101.013 105.345 101.459 100.617C100.211 100.331 98.9133 99.7521 97.648 99.7988C97.112 99.7201 96.428 99.7708 95.7947 99.7308C95.1613 99.7708 94.4773 99.7201 93.9413 99.7988C92.676 99.7521 91.3787 100.331 90.1307 100.617C90.576 105.345 89.8907 110.532 89.084 114.097C86.7093 123.708 76.26 130.056 66.6213 128.208ZM58.036 85.4455C59.7053 82.5255 61.896 79.5268 64.9173 77.9001C68.4733 75.9415 73.144 74.2601 76.9747 76.3961C78.4053 77.2495 80.4693 79.6268 78.9693 81.1881C73.6933 83.0561 68.3067 84.6908 63.172 86.9948C61.452 87.6281 59.8107 88.5695 58.0147 88.9428C57.8693 88.9428 57.7293 88.9108 57.612 88.8242C57.6147 88.8242 57.6187 88.8242 57.6213 88.8242C56.8533 87.8468 57.6 86.4641 58.036 85.4455ZM57.6934 85.3602C57.6827 85.3882 57.6667 85.4188 57.656 85.4455C57.6547 85.4481 57.6533 85.4508 57.652 85.4521C57.668 85.4201 57.6827 85.3882 57.6934 85.3602ZM114.615 76.3961C118.445 74.2601 123.116 75.9415 126.672 77.9001C129.692 79.5268 131.883 82.5255 133.553 85.4468C133.989 86.4641 134.736 87.8468 133.968 88.8242C133.969 88.8228 133.972 88.8228 133.976 88.8228C133.857 88.9108 133.72 88.9428 133.575 88.9428C131.777 88.5695 130.136 87.6281 128.416 86.9948C123.281 84.6908 117.896 83.0561 112.62 81.1881C111.12 79.6268 113.183 77.2495 114.615 76.3961ZM99.4653 180.993C99.4707 180.996 99.4733 181 99.48 181.003C99.76 180.983 100.041 180.963 100.32 180.941C113.987 179.468 126.203 170.104 134.744 159.917C142.777 150.115 145.615 137.552 147.711 125.388C148.652 119.795 149.612 114.204 151.175 108.743C151.241 108.576 151.305 108.392 151.369 108.205C151.088 101.551 150.924 94.5402 149.499 87.9602C143.884 82.6162 139.281 76.0655 138.217 68.2148C134.801 72.5081 130.741 66.5401 129.24 63.4455C127.372 59.7361 126.727 55.5188 126.272 51.4255C126.267 51.1362 126.249 50.8361 126.229 50.5348C125.933 50.9521 125.639 51.3682 125.344 51.7922C123.919 53.7042 122.807 51.8855 122.173 50.4575C121.256 48.6882 119.613 47.3002 117.529 47.8188C112.923 48.8855 109.341 52.2868 105.421 54.7415C99.232 58.6815 92.0013 62.7148 84.4533 62.2562C82.6467 61.9295 81.2627 60.3802 81.0547 58.6055C80.0013 59.4335 78.8974 60.1921 77.7587 60.8668C73.84 63.0108 60.1307 70.2642 61.5413 60.6922C57.364 64.5695 52.3387 67.4961 46.9307 69.2828C46.7773 69.3095 46.6093 69.3588 46.4347 69.4175C46.4653 69.5521 46.492 69.6895 46.4947 69.8255C47.0707 74.4842 47.3387 79.6215 45.3907 83.9922C43.808 87.0215 41.7907 89.6108 40.676 92.8055C39.6427 97.7095 39.884 102.719 40.288 107.637C41.56 112.171 42.1987 116.844 43.1747 121.448C46.6173 137.085 49.972 153.652 61.424 165.412C71.0134 174.827 84.424 180.604 97.804 180.885C98.356 180.904 98.944 180.799 99.4653 180.993Z" fill="#FFDECC"/>
<path d="M153.413 111.673C152.825 115.801 151.619 120.833 151.56 122.185C150.915 126.428 150.161 130.728 149.185 134.977C150.277 133.485 151.268 131.929 151.932 130.272C153.267 127.263 152.42 123.931 153.208 120.824C153.32 119.615 159.369 109.937 160.168 112.861C159.537 114.373 158.32 115.639 157.676 117.177C158.104 117.319 158.161 117.873 158.312 118.247C158.976 121.06 158.424 123.975 157.744 126.731C156.604 132.075 152.995 137.424 148.003 139.652C147.356 141.983 146.639 144.284 145.805 146.535C145.913 146.536 146.02 146.531 146.128 146.503C156.24 142.476 160.856 130.559 162.396 120.517C163.613 113.377 160.572 103.683 153.413 111.673Z" fill="#FFDECC"/>
<path d="M157.072 118.431C156.009 120.931 154.867 123.488 154.516 126.184C154.069 130.163 152.179 133.656 150.157 137.039C156.337 133.224 157.728 125.137 157.072 118.431Z" fill="#FC9595"/>
<path d="M166.231 67.0494C165.724 78.9161 160.017 89.9428 157.351 101.423C157.271 102.289 156.204 104.543 155.817 106.263C155.057 106.623 154.351 107.116 153.724 107.703C153.697 107.276 153.657 106.916 153.577 106.623C153.804 104.423 153.684 101.396 153.591 99.4628C153.551 98.6094 153.524 97.9828 153.524 97.7161C153.311 94.2628 152.404 90.9428 151.831 87.5428C152.351 86.5561 151.511 85.6894 150.804 85.0894C147.751 81.9428 144.764 78.6094 143.071 74.4094C141.737 71.3561 140.991 67.9028 140.537 64.5428C140.457 64.0894 140.324 63.6228 139.951 63.3161C139.311 62.7561 138.271 62.9828 137.924 63.7694C137.591 64.5428 137.791 65.4494 137.884 66.2628C136.817 67.7294 136.004 67.9561 134.737 66.5428C132.724 64.5961 131.671 61.9428 130.937 59.2628C130.017 56.0094 129.417 52.5294 128.817 49.1694C128.537 48.1828 128.377 44.9294 126.724 46.0494C126.524 46.3828 126.391 46.7428 126.297 47.1161C125.511 47.8361 124.724 48.9694 124.284 49.3961C121.177 41.4228 112.337 46.4228 107.551 49.8761C102.804 53.1694 98.0173 56.1161 92.4707 58.0628C89.884 58.6894 83.5507 62.2761 83.3507 57.4228C83.3507 57.1828 83.324 56.9294 83.244 56.6894C85.044 54.8894 86.564 52.8361 87.564 50.4894C87.724 50.0228 88.364 49.0094 87.5907 48.8227C86.8707 48.9561 86.444 49.7294 85.8707 50.1294C82.3107 53.5428 78.7774 57.0761 74.2574 59.2361C71.244 60.7428 67.964 61.9561 64.6307 62.6494C63.804 62.7561 64.1773 61.4094 64.164 60.8894C64.1907 59.3161 65.044 57.6894 64.9107 56.1161C64.6307 55.2494 63.3507 55.0228 62.804 55.7428C58.7107 61.0894 52.524 64.4228 46.2307 66.7428C44.9773 67.5294 41.4707 67.7028 41.9773 69.7028C42.4173 70.5028 43.124 70.5694 43.924 70.3694C43.724 76.9428 43.9373 83.7428 39.4973 89.2494C37.604 92.8228 38.3373 97.3161 38.1107 101.263C38.124 102.983 38.244 104.716 38.4574 106.436C38.364 106.623 38.2973 106.863 38.2307 107.156C37.4707 106.503 36.5773 106.049 35.6307 105.796C35.0707 105.636 34.4973 105.556 33.9107 105.556C33.6573 104.783 33.2707 103.956 33.244 103.329C31.2707 95.8361 29.6974 88.2628 28.124 80.6761C26.324 72.5561 25.404 64.3161 26.5373 55.9828C30.004 33.2494 64.484 2.14276 88.3907 6.19609C97.1907 7.35609 105.777 10.1161 113.764 14.2628C115.017 14.9828 116.551 16.1294 117.951 16.8628C118.484 17.1294 119.124 17.3561 119.697 17.0894C120.817 16.3694 119.737 15.0094 119.017 14.4228C117.657 13.1561 116.164 12.0761 114.577 11.1561C114.044 8.70275 112.391 5.9561 113.817 3.56943C122.417 7.60943 128.631 15.4494 133.391 23.5161C135.191 26.6228 136.897 29.8628 138.364 33.1561C138.617 33.7028 138.951 34.3161 139.577 34.4894C140.271 34.5694 140.697 34.3561 140.911 33.9428C142.684 33.9694 144.417 33.9161 146.217 34.5161C157.137 37.7161 165.524 56.4228 166.231 67.0494Z" fill="#26160D"/>
<path d="M34.7227 117.952C34.1307 123.924 34.7387 130.969 39.444 134.659C38.524 132.701 37.9654 130.573 37.824 128.391C37.6267 125.672 37.6707 122.695 36.1307 120.359C35.7107 119.536 35.224 118.74 34.7227 117.952Z" fill="#FC9595"/>
<path d="M115.06 79.3549C121.135 81.2429 126.943 83.8882 132.496 86.9762C130.9 81.5855 119.821 74.6735 115.06 79.3549Z" fill="#26130C"/>
<path d="M113.839 102.739C117.775 99.1628 121.239 109.205 118.249 111.468C117.137 112.075 115.6 111.423 114.744 110.624C113.236 108.509 112.329 105.053 113.839 102.739ZM120.38 125.492C130.119 126.203 138.263 118.099 140.177 108.911C140.695 105.908 141.739 102.035 139.121 99.6668C139.147 99.7015 139.172 99.7308 139.197 99.7641C131.976 95.4868 123.324 94.2615 115.052 93.6922C113.052 93.6095 111.383 93.6748 109.301 93.8121C108.288 93.9375 106.94 93.7988 106.215 94.6335C103.679 99.4881 103.976 105.156 104.711 110.54C105.725 118.421 112.404 124.912 120.38 125.492Z" fill="#FFF4EE"/>
<path d="M42.9134 139.573C41.9707 138.652 41.164 137.617 40.4694 136.516C33.8747 132.596 32.792 123.448 33.6254 116.245C32.8814 115.104 32.1547 113.961 31.584 112.764C31.8387 111.264 33.716 112.509 34.3134 113.152C40.996 118.656 37.108 125.884 40.5227 132.54C41.4427 133.995 42.3694 135.556 43.4427 136.931C42.2454 132.393 41.2414 127.805 40.2267 123.307C40.0147 122.001 38.8014 116.531 38.308 112.067C38.2974 112.048 38.2827 112.029 38.272 112.009C37.2307 109.255 33.548 107.428 31.3067 109.964C29.936 111.996 30.0347 114.467 29.9347 116.797C30.4587 126.412 32.5627 138.031 41.2747 143.584C42.9707 144.585 44.532 145.373 46.2174 146.031C45.4747 143.929 44.8 141.797 44.1867 139.644C43.8254 139.903 43.336 139.967 42.9134 139.573Z" fill="#FFDECC"/>
<path d="M59.0934 86.9762C64.6467 83.8882 70.4534 81.2429 76.528 79.3549C71.768 74.6735 60.6894 81.5855 59.0934 86.9762Z" fill="#26130C"/>
<path d="M167.817 222.063C166.217 226.089 165.231 230.343 164.111 234.529C161.417 244.876 159.271 255.41 158.524 266.103C154.457 267.25 150.364 268.316 146.271 269.289C139.751 270.863 133.151 272.236 126.511 273.343C123.497 273.836 120.471 274.289 117.444 274.676C117.737 274.143 117.911 273.516 118.204 273.023C119.871 268.943 122.031 265.116 124.511 261.489C131.391 251.476 135.951 246.756 135.551 240.01C135.364 236.81 134.057 233.129 131.351 228.21C130.764 227.143 130.097 226.023 129.377 224.823C143.964 211.303 143.311 205.596 136.057 193.489C145.044 200.129 153.684 207.303 161.511 215.263C163.684 217.463 165.791 219.729 167.817 222.063Z" fill="#2D2DC6"/>
<path d="M168.799 223.215C166.331 229.311 165.251 235.871 163.707 242.243C162.317 248.233 161.175 254.203 160.701 260.325C160.535 262.087 160.399 263.848 160.255 265.61C168.348 263.251 176.299 260.456 183.885 256.903C184.999 256.548 186.301 255.225 187.461 255.156C183.129 244.951 178.093 234.898 171.259 226.12C170.461 225.132 169.623 224.18 168.799 223.215Z" fill="#2D2DC6"/>
<path d="M123.42 193.21C124.891 192.732 124.172 196.695 124.044 197.459C121.88 209.243 119.868 221.081 118.255 232.967C118.273 232.943 118.293 232.919 118.309 232.895C124.083 224.16 134.477 218.387 137.784 208.196C138.424 205.244 136.953 202.532 135.709 199.974C133.285 195.133 130.616 190.404 127.652 185.869C126.401 183.924 125.313 182.287 123.963 180.537C123.756 184.76 123.56 188.986 123.42 193.21Z" fill="#1E1EBE"/>
<path d="M120.937 182.169C120.871 185.569 120.937 188.983 121.177 192.383C120.697 192.45 120.257 192.823 120.004 193.276C115.644 198.289 110.284 202.85 103.857 204.943C93.964 207.583 82.7507 204.596 75.0573 197.876C74.4707 197.529 72.6573 195.289 71.4173 194.263C71.9507 190.356 71.8973 186.396 71.3907 182.503C71.3907 182.423 71.3773 182.329 71.364 182.249C71.1373 181.343 71.0307 178.743 70.6573 176.476C79.0973 181.343 88.8173 184.103 98.4173 184.249C98.8707 184.329 99.2573 184.236 99.5907 184.063C106.324 184.596 114.337 180.929 121.217 176.383C121.084 178.303 120.991 180.236 120.937 182.169Z" fill="#FFDECC"/>
<path d="M119.816 264.907C123.752 257.469 129.913 250.937 132.259 242.764C133.121 236.991 129.256 232.015 127.041 226.964C123.657 230.251 120.429 233.41 117.7 237.169C116.573 246.027 115.684 254.908 115.164 263.819C114.977 267.543 114.84 271.268 114.771 274.998C115.06 274.964 115.349 274.927 115.637 274.892C115.485 274.396 115.74 273.865 115.92 273.388C116.961 270.474 118.264 267.598 119.816 264.907Z" fill="#1E1EBE"/>
<path d="M22.3133 219.864C20.0813 222.477 17.968 225.188 16.0093 228.012C10.8973 235.441 7.20534 243.615 3.848 251.934C3.704 252.312 3.54534 252.755 3.35468 253.176C3.44268 253.232 3.52934 253.289 3.61867 253.34C6.90401 255.498 10.436 257.495 13.9107 259.224C19.7587 262.034 25.784 264.424 31.9253 266.472C30.4107 259.54 29.5053 252.44 28.084 245.476C26.264 236.92 24.1773 228.407 22.3133 219.864Z" fill="#2D2DC6"/>
<path d="M67.3306 226.683C69.86 229.792 72.34 232.937 74.58 236.264C73.8946 232.064 73.1706 227.869 72.432 223.677C71.0293 214.42 68.2027 205.319 67.6933 195.953C67.7147 194.52 68.2306 193.725 68.812 194.047C68.832 193.598 68.852 193.152 68.8626 192.704C69.028 188.61 68.6946 184.533 68.208 180.483C68.016 180.701 67.832 180.921 67.676 181.151C64.656 185.364 62.2733 189.891 59.852 194.443C57.7293 198.95 54.8746 203.262 53.5973 208.098C53.196 214.652 63.6546 221.389 67.3306 226.683Z" fill="#1E1EBE"/>
<path d="M77.284 275.689C74.8573 275.463 72.4306 275.196 70.004 274.889C57.8173 273.369 45.7106 270.889 34.0173 267.169C30.7373 251.063 27.0573 234.903 23.0973 218.956C26.0573 215.569 29.2306 212.343 32.5773 209.316C40.484 202.076 49.324 195.81 58.484 190.356C57.524 192.129 56.5906 193.929 55.6573 195.676C53.9506 199.423 51.3106 202.929 50.5906 207.036C50.124 214.543 56.764 220.436 62.5506 225.716C61.764 226.61 61.0706 227.636 60.404 228.663C59.804 229.623 59.204 230.583 58.564 231.463C57.2973 233.45 56.0306 235.663 55.4306 237.956C54.884 240.01 54.8706 242.129 55.844 244.223C61.8706 255.436 71.9906 264.023 77.284 275.689Z" fill="#2D2DC6"/>
<path d="M121.107 199.207C121.309 198.601 121.472 197.967 121.635 197.328C121.625 197.1 121.609 196.882 121.561 196.699C121.523 196.352 121.495 196.004 121.46 195.657C120.399 196.916 118.891 198.174 118.413 198.876C112.64 205.08 104.788 209.54 96.096 208.951C86.776 208.671 76.0627 204.744 71.056 196.476C70.8934 197.31 70.7 198.136 70.4774 198.956C75.3627 220.994 79.4133 243.36 81.3293 265.855C81.5187 269.065 81.7294 272.264 81.8507 275.48C81.8574 275.689 81.8134 275.888 81.7427 276.075C91.7734 276.652 101.823 276.325 111.812 275.313C111.757 257.429 113.976 239.603 116.775 221.988C117.96 214.348 119.128 206.695 121.107 199.207Z" fill="#E9F5FF"/>
<path d="M67.2613 230.251C66.384 229.298 65.384 228.331 64.3307 227.348C56.164 241.331 55.5654 240.536 65.9427 254.319C66.7254 255.189 76.152 268.837 79.0014 275.238C78.4934 263.865 77.116 252.58 75.38 241.344C72.9494 237.448 70.644 233.448 67.2613 230.251Z" fill="#1E1EBE"/>
<path d="M95.832 133.951C93.796 133.748 92.236 132.129 91.0133 130.603C90.9093 130.447 90.9053 130.399 90.8547 130.239C93.7627 132.159 97.8067 131.937 100.515 129.752C99.9827 131.891 98.2027 134.032 95.832 133.951ZM100.296 127.831C98.6067 129.228 96.4867 130.003 94.2733 129.921C92.5733 130.001 91.2733 128.809 89.82 128.257C89.464 128.317 89.4187 128.728 89.5853 128.993C89.4787 132.003 92.2973 134.481 95.0707 135.181C97.6867 135.877 100.312 134.213 101.169 131.723C101.56 130.5 102.475 128.867 101.925 127.651C101.477 127.096 100.681 127.331 100.296 127.831Z" fill="#26073D"/>
<path d="M106.128 148.219C105.475 148.243 105.121 148.877 104.605 149.196C99.3773 152.937 90.4453 154.036 84.9773 150.188C84.712 149.955 84.4186 149.621 84.0986 149.347C84.22 149.132 84.3253 148.949 84.404 148.829C84.488 146.497 79.8626 150.765 80.7986 151.856C81.4466 152.883 82.3413 152.043 83.0973 150.968C85.696 152.771 93.072 154.253 94.2733 154.172C98.832 154.607 103.256 152.897 106.867 150.199C107.684 149.56 107.163 148.157 106.128 148.219Z" fill="#26073D"/>
<path d="M73.3387 111.468C74.452 112.075 75.988 111.423 76.844 110.624C78.352 108.509 79.26 105.053 77.752 102.739C73.8134 99.1628 70.3494 109.205 73.3387 111.468Z" fill="#120F15"/>
<path d="M76.528 79.3547C70.4533 81.2427 64.6467 83.8881 59.0933 86.9761C60.6893 81.5854 71.768 74.6734 76.528 79.3547ZM57.612 88.8241C57.7293 88.9107 57.8693 88.9427 58.0147 88.9427C59.8107 88.5694 61.452 87.6281 63.172 86.9947C68.3066 84.6907 73.6933 83.0561 78.9693 81.1881C80.4693 79.6267 78.4053 77.2494 76.9746 76.3961C73.144 74.2601 68.4733 75.9414 64.9173 77.9001C61.896 79.5267 59.7053 82.5254 58.036 85.4454C57.6 86.4641 56.8533 87.8467 57.6213 88.8241C57.6187 88.8241 57.6147 88.8241 57.612 88.8241Z" fill="#120F15"/>
<path d="M71.2093 125.492C61.4706 126.203 53.3266 118.099 51.412 108.911C50.8946 105.908 49.8493 102.035 52.468 99.6668C52.4426 99.7014 52.4173 99.7308 52.392 99.7641C59.612 95.4868 68.264 94.2614 76.5373 93.6921C78.5373 93.6094 80.2053 93.6748 82.288 93.8121C83.3013 93.9374 84.6493 93.7988 85.3733 94.6334C87.9106 99.4881 87.6133 105.156 86.8786 110.54C85.8626 118.421 79.184 124.912 71.2093 125.492ZM106.215 94.6334C106.94 93.7988 108.288 93.9374 109.301 93.8121C111.383 93.6748 113.052 93.6094 115.052 93.6921C123.324 94.2614 131.976 95.4868 139.197 99.7641C139.172 99.7308 139.147 99.7014 139.121 99.6668C141.739 102.035 140.695 105.908 140.177 108.911C138.263 118.099 130.119 126.203 120.38 125.492C112.404 124.912 105.725 118.421 104.711 110.54C103.976 105.156 103.679 99.4881 106.215 94.6334ZM89.084 114.097C89.8906 110.532 90.576 105.345 90.1306 100.617C91.3786 100.331 92.676 99.7521 93.9413 99.7988C94.4773 99.7201 95.1613 99.7708 95.7946 99.7308C96.428 99.7708 97.112 99.7201 97.648 99.7988C98.9133 99.7521 100.211 100.331 101.459 100.617C101.013 105.345 101.699 110.532 102.505 114.097C104.88 123.708 115.329 130.056 124.968 128.208C131.505 127.056 137.196 122.517 140.163 116.628C141.56 113.712 142.871 110.385 143.348 107.04C145.68 108.177 149.676 110.105 150.333 108.324C150.744 107.024 146.06 104.293 143.516 103.548C143.455 102.507 143.284 101.477 142.979 100.471C137.832 92.2094 119.148 90.3121 110.083 90.4694C108.429 90.5494 106.684 90.5508 105.156 91.2748C103.549 92.7761 102.547 94.9348 101.969 97.3868C101.207 97.1161 100.419 96.9401 99.8867 96.8694C98.8733 96.8108 97.1253 96.3734 95.7946 96.5201C94.4626 96.3734 92.716 96.8108 91.7026 96.8694C91.1706 96.9401 90.3813 97.1161 89.6186 97.3868C89.0426 94.9348 88.04 92.7761 86.4333 91.2748C84.904 90.5508 83.16 90.5494 81.5066 90.4694C72.4413 90.3121 53.756 92.2094 48.6093 100.471C48.3053 101.477 48.1346 102.507 48.072 103.548C45.5293 104.293 40.8453 107.024 41.2547 108.324C41.9133 110.105 45.908 108.177 48.2386 107.04C48.7186 110.385 50.0293 113.712 51.4267 116.628C54.3933 122.517 60.084 127.056 66.6213 128.208C76.26 130.056 86.7093 123.708 89.084 114.097Z" fill="#120F15"/>
<path d="M118.249 111.468C121.239 109.205 117.775 99.1628 113.839 102.739C112.329 105.053 113.236 108.509 114.744 110.624C115.6 111.423 117.137 112.075 118.249 111.468Z" fill="#120F15"/>
<path d="M132.496 86.9761C126.943 83.8881 121.135 81.2427 115.06 79.3547C119.821 74.6734 130.9 81.5854 132.496 86.9761ZM128.416 86.9947C130.136 87.6281 131.777 88.5694 133.575 88.9427C133.72 88.9427 133.857 88.9107 133.976 88.8227C133.972 88.8227 133.969 88.8227 133.968 88.8241C134.736 87.8467 133.989 86.4641 133.553 85.4467C131.883 82.5254 129.692 79.5267 126.672 77.9001C123.116 75.9414 118.445 74.2601 114.615 76.3961C113.183 77.2494 111.12 79.6267 112.62 81.1881C117.896 83.0561 123.281 84.6907 128.416 86.9947Z" fill="#120F15"/>
<path d="M57.6933 85.3602C57.6827 85.3882 57.668 85.4201 57.652 85.4521C57.6533 85.4508 57.6546 85.4481 57.656 85.4455C57.6666 85.4188 57.6827 85.3882 57.6933 85.3602Z" fill="#26073D"/>
<path d="M78.92 279.096C78.92 279.096 79.14 279.111 79.1387 279.112C79.1174 279.11 79.096 279.107 79.0747 279.104C79.0227 279.101 78.972 279.099 78.92 279.096Z" fill="#26073D"/>
<path d="M183.885 256.903C176.299 260.456 168.348 263.251 160.255 265.61C160.399 263.848 160.535 262.087 160.701 260.325C161.175 254.203 162.317 248.233 163.707 242.243C165.251 235.871 166.331 229.311 168.799 223.215C169.623 224.18 170.461 225.132 171.259 226.12C178.093 234.898 183.129 244.951 187.461 255.156C186.301 255.225 184.999 256.548 183.885 256.903ZM146.275 269.293C136.789 271.586 127.155 273.436 117.449 274.67C117.735 274.144 117.905 273.513 118.211 273.022C119.872 268.944 122.025 265.113 124.516 261.491C135.373 245.675 140.444 243.087 129.381 224.819C143.969 211.304 143.308 205.591 136.063 193.489C147.527 201.969 158.441 211.305 167.82 222.062C166.213 226.087 165.227 230.341 164.108 234.524C161.416 244.879 159.267 255.412 158.523 266.098C154.461 267.252 150.371 268.311 146.275 269.293ZM115.637 274.892C115.349 274.927 115.06 274.964 114.771 274.998C114.84 271.268 114.977 267.543 115.164 263.819C115.684 254.908 116.573 246.027 117.7 237.169C120.429 233.41 123.657 230.251 127.041 226.964C129.256 232.015 133.121 236.991 132.259 242.764C129.913 250.937 123.752 257.469 119.816 264.907C118.264 267.598 116.961 270.474 115.92 273.388C115.74 273.865 115.485 274.396 115.637 274.892ZM81.7427 276.075C81.8133 275.888 81.8573 275.689 81.8507 275.48C81.7293 272.264 81.5186 269.065 81.3293 265.855C79.4133 243.36 75.3627 220.993 70.4773 198.956C70.7 198.136 70.8933 197.31 71.056 196.476C76.0627 204.744 86.776 208.67 96.096 208.951C104.788 209.54 112.64 205.08 118.413 198.876C118.891 198.174 120.399 196.916 121.46 195.657C121.495 196.004 121.523 196.352 121.561 196.699C121.609 196.881 121.625 197.1 121.635 197.328C121.472 197.967 121.309 198.601 121.107 199.207C119.128 206.695 117.96 214.348 116.775 221.988C113.976 239.603 111.757 257.429 111.812 275.313C101.823 276.325 91.7733 276.652 81.7427 276.075ZM65.9427 254.319C55.5653 240.536 56.164 241.331 64.3306 227.348C65.384 228.331 66.384 229.298 67.2613 230.251C70.644 233.448 72.9493 237.448 75.38 241.344C77.116 252.58 78.4933 263.865 79.0013 275.238C76.152 268.837 66.7253 255.189 65.9427 254.319ZM34.0147 267.164C30.7413 251.064 27.056 234.907 23.092 218.957C33.08 207.52 45.476 198.098 58.4827 190.359C57.52 192.134 56.588 193.924 55.6587 195.683C53.9453 199.427 51.3106 202.931 50.596 207.038C50.128 214.545 56.7613 220.44 62.5533 225.712C61.028 227.441 59.904 229.62 58.568 231.464C56.1453 235.219 53.7773 239.777 55.844 244.219C61.8733 255.44 71.9933 264.027 77.284 275.692C62.656 274.298 48.036 271.636 34.0147 267.164ZM13.9107 259.224C10.436 257.495 6.904 255.498 3.61867 253.34C3.52933 253.289 3.44267 253.232 3.35467 253.176C3.54533 252.755 3.70399 252.312 3.84799 251.933C7.20533 243.615 10.8973 235.441 16.0093 228.012C17.968 225.188 20.0813 222.477 22.3133 219.864C24.1773 228.407 26.264 236.92 28.084 245.476C29.5053 252.44 30.4107 259.54 31.9253 266.472C25.784 264.424 19.7587 262.033 13.9107 259.224ZM59.852 194.443C62.2733 189.891 64.656 185.364 67.676 181.151C67.832 180.921 68.016 180.701 68.208 180.483C68.6947 184.533 69.028 188.61 68.8626 192.704C68.852 193.152 68.832 193.598 68.812 194.046C68.2307 193.725 67.7147 194.52 67.6933 195.953C68.2027 205.319 71.0293 214.42 72.432 223.677C73.1706 227.869 73.8947 232.064 74.58 236.264C72.34 232.937 69.86 229.792 67.3306 226.683C63.6546 221.389 53.196 214.652 53.5973 208.098C54.8746 203.262 57.7293 198.95 59.852 194.443ZM121.181 192.38C120.696 192.453 120.253 192.819 120.001 193.279C115.644 198.284 110.285 202.851 103.852 204.943C93.9653 207.584 82.7453 204.6 75.0547 197.877C74.4707 197.528 72.6573 195.288 71.4227 194.26C71.9613 190.283 71.9 186.221 71.368 182.251C71.1333 181.344 71.036 178.743 70.6547 176.473C79.092 181.339 88.8213 184.109 98.4187 184.245C98.872 184.324 99.2587 184.232 99.5853 184.059C106.329 184.592 114.337 180.931 121.212 176.377C120.843 181.705 120.811 187.053 121.181 192.38ZM61.424 165.412C49.972 153.652 46.6173 137.085 43.1747 121.448C42.1987 116.844 41.56 112.171 40.288 107.637C39.884 102.719 39.6427 97.7094 40.676 92.8054C41.7907 89.6107 43.808 87.0214 45.3907 83.9921C47.3387 79.6214 47.0706 74.4841 46.4946 69.8254C46.492 69.6894 46.4653 69.5521 46.4346 69.4174C46.6093 69.3587 46.7773 69.3094 46.9306 69.2827C52.3386 67.4961 57.364 64.5694 61.5413 60.6921C60.1307 70.2641 73.84 63.0107 77.7587 60.8667C78.8973 60.1921 80.0013 59.4334 81.0547 58.6054C81.2627 60.3801 82.6467 61.9294 84.4533 62.2561C92.0013 62.7147 99.232 58.6814 105.421 54.7414C109.341 52.2867 112.923 48.8854 117.529 47.8187C119.613 47.3001 121.256 48.6881 122.173 50.4574C122.807 51.8854 123.919 53.7041 125.344 51.7921C125.639 51.3681 125.933 50.9521 126.229 50.5347C126.249 50.8361 126.267 51.1361 126.272 51.4254C126.727 55.5187 127.372 59.736 129.24 63.4454C130.741 66.54 134.801 72.5081 138.217 68.2147C139.281 76.0654 143.884 82.6161 149.499 87.9601C150.924 94.5401 151.088 101.551 151.369 108.205C151.305 108.392 151.241 108.576 151.175 108.743C149.612 114.204 148.652 119.795 147.711 125.388C145.615 137.552 142.777 150.115 134.744 159.917C126.203 170.104 113.987 179.468 100.32 180.941C100.041 180.963 99.76 180.983 99.48 181.003C99.4733 181 99.4706 180.996 99.4653 180.993C98.944 180.799 98.356 180.904 97.804 180.885C84.424 180.604 71.0133 174.827 61.424 165.412ZM39.444 134.659C34.7387 130.969 34.1307 123.924 34.7227 117.952C35.224 118.74 35.7106 119.536 36.1306 120.359C37.6706 122.695 37.6267 125.672 37.824 128.391C37.9653 130.573 38.524 132.701 39.444 134.659ZM41.2747 143.584C32.5627 138.031 30.4586 126.412 29.9346 116.797C30.0346 114.467 29.936 111.996 31.3067 109.964C33.548 107.428 37.2306 109.255 38.272 112.009C38.2826 112.029 38.2973 112.048 38.308 112.067C38.8013 116.531 40.0147 122.001 40.2267 123.307C41.2413 127.805 42.2453 132.393 43.4427 136.931C42.3693 135.556 41.4427 133.995 40.5227 132.54C37.108 125.884 40.996 118.656 34.3133 113.152C33.716 112.509 31.8387 111.264 31.584 112.764C32.1547 113.961 32.8813 115.104 33.6253 116.245C32.792 123.448 33.8746 132.596 40.4693 136.516C41.164 137.617 41.9707 138.652 42.9133 139.573C43.336 139.967 43.8253 139.903 44.1867 139.644C44.8 141.797 45.4747 143.929 46.2173 146.031C44.532 145.373 42.9707 144.585 41.2747 143.584ZM28.1253 80.6761C26.3187 72.5601 25.4107 64.3134 26.54 55.9881C29.9987 33.2467 64.4893 2.13872 88.3946 6.20272C97.1893 7.36272 105.777 10.12 113.76 14.264C115.016 14.9827 116.551 16.124 117.948 16.864C118.479 17.124 119.125 17.3587 119.692 17.0827C120.813 16.3761 119.732 15.0147 119.016 14.4214C117.659 13.1507 116.161 12.0801 114.575 11.1521C114.04 8.70007 112.389 5.95472 113.812 3.56538C122.413 7.61605 128.636 15.4534 133.388 23.5147C135.189 26.6201 136.899 29.868 138.371 33.16C138.616 33.7067 138.955 34.3214 139.58 34.488C140.275 34.5694 140.697 34.3627 140.915 33.9454C142.684 33.9734 144.413 33.9147 146.219 34.5227C157.135 37.7187 165.517 56.4281 166.237 67.0481C165.728 78.9214 160.019 89.9414 157.347 101.42C157.269 102.296 156.204 104.545 155.817 106.267C155.06 106.627 154.349 107.115 153.719 107.7C153.701 107.275 153.655 106.911 153.572 106.619C153.917 103.465 153.509 98.5934 153.523 97.7214C153.317 94.2614 152.399 90.9441 151.825 87.5401C152.349 86.5627 151.516 85.6827 150.799 85.0921C147.749 81.9441 144.767 78.6134 143.072 74.4147C141.741 71.3574 140.991 67.8987 140.537 64.5494C140.46 64.0921 140.329 63.6281 139.955 63.3161C139.315 62.7614 138.273 62.9841 137.931 63.7641C137.591 64.5401 137.796 65.4494 137.885 66.2667C136.813 67.7294 136.008 67.9587 134.744 66.5401C132.728 64.5974 131.667 61.9481 130.944 59.2641C130.023 56.0067 129.419 52.5361 128.813 49.1694C128.536 48.1827 128.375 44.9307 126.72 46.0494C126.52 46.3841 126.396 46.7441 126.304 47.1134C125.508 47.8374 124.724 48.9747 124.279 49.3921C121.183 41.4281 112.332 46.4281 107.547 49.8814C102.809 53.1734 98.016 56.1107 92.468 58.0574C89.8826 58.6854 83.548 62.2747 83.3573 57.4241C83.3573 57.1841 83.3186 56.9241 83.24 56.6841C85.048 54.8961 86.568 52.8374 87.5613 50.4907C87.7226 50.0174 88.3653 49.0147 87.5867 48.824C86.868 48.9547 86.4506 49.7241 85.868 50.1267C82.308 53.5427 78.78 57.0801 74.264 59.2361C71.24 60.7454 67.968 61.9587 64.6293 62.6441C63.808 62.7601 64.184 61.4147 64.164 60.896C64.192 59.3187 65.0466 57.6921 64.9053 56.1214C64.6346 55.2467 63.3547 55.0214 62.8093 55.7427L62.8053 55.7307C58.728 61.0907 52.5293 64.4254 46.228 66.7467C44.9813 67.5281 41.4773 67.7041 41.9827 69.7001C42.412 70.5027 43.1307 70.5734 43.9253 70.3761C43.7253 76.9441 43.936 83.7401 39.5 89.2481C37.5986 92.8214 38.336 97.3161 38.1147 101.259C38.1227 102.985 38.2466 104.713 38.464 106.433C38.3666 106.627 38.292 106.869 38.236 107.152C37.0306 106.132 35.4813 105.571 33.9053 105.563C33.6613 104.779 33.276 103.951 33.24 103.332C31.2747 95.8347 29.6947 88.2614 28.1253 80.6761ZM150.157 137.039C152.179 133.656 154.069 130.163 154.516 126.184C154.867 123.488 156.009 120.931 157.072 118.431C157.728 125.137 156.337 133.224 150.157 137.039ZM162.396 120.517C160.856 130.559 156.24 142.476 146.128 146.503C146.02 146.531 145.913 146.536 145.805 146.535C146.639 144.284 147.356 141.983 148.003 139.652C152.995 137.424 156.604 132.075 157.744 126.731C158.424 123.975 158.976 121.06 158.312 118.247C158.161 117.873 158.104 117.319 157.676 117.177C158.32 115.639 159.537 114.373 160.168 112.861C159.369 109.937 153.32 119.615 153.208 120.824C152.42 123.931 153.267 127.263 151.932 130.272C151.268 131.929 150.277 133.485 149.185 134.977C150.161 130.728 150.915 126.428 151.56 122.185C151.619 120.833 152.825 115.801 153.413 111.673C160.572 103.683 163.613 113.377 162.396 120.517ZM127.652 185.869C130.616 190.404 133.285 195.133 135.709 199.974C136.953 202.532 138.424 205.244 137.784 208.196C134.477 218.387 124.083 224.16 118.309 232.895C118.293 232.919 118.273 232.943 118.255 232.967C119.868 221.081 121.88 209.243 124.044 197.458C124.172 196.695 124.891 192.732 123.42 193.21C123.56 188.986 123.756 184.76 123.963 180.537C125.313 182.287 126.401 183.924 127.652 185.869ZM185.577 243.246C180.272 232.137 172.959 222.038 164.181 213.367C154.752 204.125 144.712 195.203 133.603 188.057C133.179 187.873 132.803 187.761 132.476 187.704C131.455 186.08 130.367 184.353 129.22 182.488C128.463 181.528 125.977 177.54 124.14 176.879C124.183 176.003 124.227 175.127 124.267 174.251C127.456 171.912 130.283 169.481 132.456 167.353C138.157 162.097 142.089 155.692 144.929 148.751C145.4 148.985 145.923 149.128 146.323 149.132C152.097 148.301 157.221 142.84 159.953 137.913C163.911 130.117 169.856 112.999 161.625 106.501C160.604 105.836 159.511 105.569 158.428 105.603C159.077 103.649 159.683 101.673 160.429 99.7521C164.391 88.3814 168.036 76.7054 169.028 64.6267C168.997 59.0801 166.411 53.9014 164.023 49.0174C159.653 40.7694 153.072 31.1014 142.7 31.1521C142.268 31.1441 141.536 31.28 140.839 31.528C139.379 26.164 132.005 15.3041 130.876 13.9361C126.701 8.55205 121.624 3.6774 115.423 0.717401C113.561 -0.230599 111.38 0.924048 110.683 2.79738C109.885 4.93471 110.241 7.23739 111.037 9.37206C107.252 7.68806 103.187 6.49338 99.3333 5.19738C88.684 1.87871 76.8547 1.35738 66.7453 6.62938C49.032 14.4547 34.1333 29.1707 25.8387 46.6494C19.1493 62.4107 26.6987 89.4574 31.8573 105.889C31.2827 106.075 30.724 106.312 30.2147 106.665C24.452 111.021 27.104 122.808 28.4013 128.952C30.828 139.159 36.78 147.272 47.4026 149.707C47.4746 149.728 47.552 149.739 47.628 149.755C49.7773 155.008 52.5053 159.985 56.1946 164.417C59.392 168.275 63.1987 171.649 67.4093 174.469C67.556 175.519 67.7 176.571 67.8427 177.625C67.3013 177.929 66.8133 178.388 66.3827 178.781C64.2467 181.031 62.448 183.597 60.8107 186.288C60.1053 186.515 59.392 186.851 58.968 187.023C50.4613 190.772 43.112 196.641 35.936 202.455C23.044 212.84 11.9147 225.644 5.14399 240.862C3.39866 244.674 1.84933 248.572 0.186667 252.419C-0.168 253.22 0.243987 254.184 1.03999 254.522C1.31732 254.633 1.55733 254.652 1.77999 254.64C3.06666 255.757 4.80266 256.881 5.55066 257.419C26.1733 270.549 54.86 276.763 79.076 279.104C101.581 280.731 124.212 277.727 146.124 272.627C159.121 269.512 172.187 266.084 184.223 260.152C185.436 259.241 189.139 258.274 188.955 256.431C189.58 256.41 190.199 256.024 190.348 255.356C190.529 254.546 190.137 253.774 189.884 253.022C188.555 249.716 187.124 246.453 185.577 243.246Z" fill="#120F15"/>
<path d="M162.617 73.0499C161.897 75.7299 160.991 78.3699 159.924 80.9433C158.844 77.1966 156.777 73.7299 153.964 71.0099C157.657 76.7566 156.951 84.1966 155.671 90.9033C155.097 93.9166 154.444 96.9033 153.684 99.8766C153.644 99.0233 153.617 98.3966 153.617 98.1299C153.404 94.6766 152.497 91.3566 151.924 87.9566C152.444 86.97 151.604 86.1033 150.897 85.5033C147.844 82.3566 144.857 79.0233 143.164 74.8233C141.831 71.77 141.084 68.3166 140.631 64.9566C140.551 64.5033 140.417 64.0366 140.044 63.7299C139.404 63.1699 138.364 63.3966 138.017 64.1833C137.684 64.9566 137.884 65.8633 137.977 66.6766C136.911 68.1433 136.097 68.37 134.831 66.9566C132.817 65.01 131.764 62.3566 131.031 59.6766C130.111 56.4233 129.511 52.9433 128.911 49.5833C128.631 48.5966 128.471 45.3433 126.817 46.4633C126.617 46.7966 126.484 47.1566 126.391 47.53C125.604 48.25 124.817 49.3833 124.377 49.8099C121.271 41.8366 112.431 46.8366 107.644 50.29C102.897 53.5833 98.1107 56.5299 92.5641 58.4766C89.9774 59.1033 83.6441 62.6899 83.4441 57.8366C83.4441 57.5966 83.4174 57.3433 83.3374 57.1033C85.1374 55.3033 86.6574 53.2499 87.6574 50.9033C87.8174 50.4366 88.4574 49.4233 87.6841 49.2366C86.9641 49.3699 86.5374 50.1433 85.9641 50.5433C82.4041 53.9566 78.8707 57.4899 74.3507 59.6499C71.3374 61.1566 68.0574 62.3699 64.7241 63.0633C63.8974 63.1699 64.2707 61.8233 64.2574 61.3033C64.2841 59.7299 65.1374 58.1033 65.0041 56.5299C64.7241 55.6633 63.4441 55.4366 62.8974 56.1566C58.8041 61.5033 52.6174 64.8366 46.324 67.1566C45.0707 67.9433 41.5641 68.1166 42.0707 70.1166C42.5107 70.9166 43.2174 70.9833 44.0174 70.7833C43.8174 77.3566 44.0307 84.1566 39.5907 89.6633C37.6974 93.2366 38.4307 97.7299 38.2041 101.677C38.2174 103.397 38.3374 105.13 38.5507 106.85C38.4574 107.037 38.3907 107.277 38.324 107.57C37.564 106.917 36.6707 106.463 35.724 106.21C33.8707 94.7966 32.2307 83.3433 32.0174 71.7966C31.9507 68.3166 32.0307 64.7699 33.0707 61.4499C35.0707 55.0899 40.2974 50.3699 45.2974 45.9699C43.2841 47.2099 41.0707 48.1166 38.7641 48.6633C38.3107 48.77 37.7907 48.8499 37.4174 48.5699C37.1641 48.3833 37.0307 48.0633 36.9507 47.7699C36.1107 44.7433 38.2307 41.7566 40.3774 39.4633C50.8307 28.2366 65.0441 20.2766 80.2707 18.4099C95.5107 16.5433 111.644 21.0766 122.937 31.4766C122.151 28.4499 121.684 25.3433 121.537 22.2233C121.471 20.7833 122.044 18.7966 123.471 18.9833C124.111 19.0766 124.577 19.6233 124.977 20.13C129.417 25.81 133.351 31.8899 136.737 38.2499C140.631 37.1699 144.444 38.9299 147.711 41.3166C150.977 43.7033 153.391 47.0633 155.577 50.4633C157.564 53.5299 159.404 56.7033 161.111 59.9299C162.111 61.8366 163.071 63.7966 163.391 65.9166C163.737 68.3033 163.244 70.7166 162.617 73.0499Z" fill="#26130C"/>
<path d="M121.217 176.383C121.084 178.303 120.991 180.236 120.937 182.169C115.444 186.503 106.924 191.236 96.044 191.236C86.4707 191.236 77.8173 186.956 71.3907 182.503C71.3907 182.423 71.3773 182.329 71.364 182.249C71.1373 181.343 71.0307 178.743 70.6573 176.476C79.0973 181.343 88.8173 184.103 98.4173 184.249C98.8707 184.329 99.2573 184.236 99.5907 184.063C106.324 184.596 114.337 180.929 121.217 176.383Z" fill="#FC9595"/>
<path d="M60.404 228.663C55.4573 222.45 49.044 214.343 46.7107 211.236C44.6307 208.463 38.244 208.569 32.5773 209.316C40.484 202.076 49.324 195.81 58.484 190.356C57.524 192.129 56.5907 193.929 55.6573 195.676C53.9507 199.422 51.3107 202.929 50.5907 207.036C50.124 214.543 56.764 220.436 62.5507 225.716C61.764 226.61 61.0707 227.636 60.404 228.663Z" fill="#1E1EBE"/>
<path d="M77.284 275.689C74.8574 275.463 72.4307 275.196 70.004 274.889C64.7774 266.183 58.2974 255.569 56.044 252.569C52.7507 248.183 54.6574 240.516 55.4307 237.956C54.884 240.01 54.8707 242.129 55.844 244.223C61.8707 255.436 71.9907 264.023 77.284 275.689Z" fill="#1E1EBE"/>
<path d="M135.551 240.01C136.844 244.076 138.111 249.049 137.377 251.236C136.564 253.663 130.884 264.876 126.511 273.343C123.497 273.836 120.471 274.289 117.444 274.676C117.737 274.143 117.911 273.516 118.204 273.023C119.871 268.943 122.031 265.116 124.511 261.489C131.391 251.476 135.951 246.756 135.551 240.01Z" fill="#1E1EBE"/>
<path d="M161.511 215.263C157.191 213.116 148.684 209.263 146.711 211.236C145.191 212.756 137.591 221.223 131.351 228.21C130.764 227.143 130.097 226.023 129.377 224.823C143.964 211.303 143.311 205.596 136.057 193.489C145.044 200.129 153.684 207.303 161.511 215.263Z" fill="#1E1EBE"/>
</svg>
