<svg width="188" height="269" viewBox="0 0 188 269" fill="none" xmlns="http://www.w3.org/2000/svg">
<path d="M91.7093 147.165C93.9786 145.823 96.668 145.34 99.2253 146.06C99.7573 146.201 100.365 146.281 100.928 146.445C101.036 145.796 101.132 145.185 101.224 144.652C101.447 141.988 102.48 139.016 101.012 136.704C99.3773 135.919 97.5546 137.631 95.9066 137.917C94.0453 138.453 92.1146 138.855 90.1773 138.953C88.48 138.9 86.7906 138.339 85.0973 138.348C85.2133 140.953 86.212 146.201 88.0946 150.46C88.888 149.028 90.4986 147.768 91.7093 147.165Z" fill="#ED546E"/>
<path d="M83.5693 143.729C83.2999 141.513 82.4093 138.897 83.5573 136.896C84.92 135.748 87.1346 136.748 88.6719 136.709C92.3559 136.929 95.8453 135.285 99.4266 134.667C100.747 134.349 102.132 134.84 102.817 136.043C105.58 139.376 104.36 144.078 103.687 147.959C102.627 152.7 100.515 160.324 94.38 159.694C87.1533 158.466 84.8959 149.907 83.5693 143.729ZM76.9013 76.0015C73.4213 77.7322 69.34 78.2788 65.7546 79.8922C63.3 80.6882 61.2213 82.5002 58.832 83.2242C58.476 83.4148 57.9639 83.2762 57.7813 82.9095C57.2173 78.0175 63.296 72.1961 67.7293 70.8521C70.7973 70.0241 75.036 69.7908 77.1826 72.5641C77.9026 73.6255 77.912 75.1122 76.9013 76.0015ZM74.1493 105.024C71.828 103.663 69.1573 102.735 66.4013 103.033C64.9546 103.011 63.4426 103.907 62.0506 103.358C60.1119 101.806 63.0306 100.068 64.4626 99.9828C67.464 99.3242 70.7533 99.6255 73.4053 101.259C74.2893 101.88 75.0266 102.297 75.6133 103.133C76.1959 104.097 75.2226 105.344 74.1493 105.024ZM85.124 117.732C86.4146 117.795 87.5533 118.595 88.688 119.026C90.1453 119.419 91.7479 119.196 93.1893 119.133C95.3399 118.968 97.5813 118.796 99.5293 117.809C100.147 117.353 101.096 117.552 101.363 118.304C101.612 119.019 101.267 119.773 100.936 120.404C99.3853 123.42 96.0946 125.687 92.6186 124.909C89.488 124.257 87.0906 121.577 85.3079 119.115C84.9386 118.776 84.3333 117.932 85.124 117.732ZM118.384 70.4482C123.779 71.6642 127.893 76.3162 129.409 81.5002C129.415 81.5188 129.408 81.5362 129.408 81.5548C129.988 82.3282 128.943 83.3682 128.177 82.7895C127.761 82.7642 127.288 82.4975 127 82.2402C123.812 80.2415 120.199 79.0442 116.608 78.0202C114.771 77.4402 112.724 77.1335 111.28 75.7508C107.984 71.6388 115.26 69.3708 118.384 70.4482ZM124.121 103.145C120.908 101.915 117.375 102.175 114.371 103.776C113.444 104.164 112.377 105.471 111.464 104.348C110.62 103.137 112.184 102.359 113.037 101.796C115.559 100.093 118.581 99.1642 121.636 99.3695C122.999 99.5522 124.452 99.9068 125.527 100.807C126.628 101.824 125.527 103.605 124.121 103.145ZM101.589 172.607C114.915 168.611 126.755 157.839 135.797 147.694C141.485 140.516 142.049 131.048 143.901 122.427C145.535 113.174 146.915 104.222 147.559 94.9855C146.193 85.2615 142.115 76.0789 136.387 68.2029C127.285 53.9629 113.135 42.0482 96.1426 39.3695C85.2719 37.6162 68.8413 47.6641 60.652 54.3855C54.0053 60.2935 48.2413 67.6388 44.7199 75.6668C43.0213 79.6762 41.496 83.7548 40.1826 87.9082C40.816 99.7148 42.5 111.436 44.86 123.016C46.1853 129.529 47.3013 136.171 50.332 142.063C57.648 156.147 74.8439 168.868 89.9506 173.192C91.1439 173.551 92.4173 173.673 93.6013 174.039C96.284 173.728 99.0306 173.371 101.589 172.607Z" fill="#FFDECC"/>
<path d="M157.363 115.765C155.843 121.245 153.549 126.512 150.696 131.419C148.469 135.499 145.723 139.219 142.576 142.592C140.589 147.485 137.056 151.645 133.296 155.272C129.323 159.205 125.123 162.939 120.603 166.245C112.803 172.125 103.976 176.992 94.0693 177.005C93.6427 177.165 93.1626 177.205 92.656 177.059C76.4026 174.619 55.5093 159.085 47.6027 143.992C40.2293 135.112 34.0027 125.112 29.6027 114.525C29.5093 114.405 29.5227 114.219 29.616 114.099C30.256 113.672 30.9093 115.059 31.216 115.499C33.6827 119.645 36.5093 123.552 39.016 127.672C40.8027 130.592 42.696 133.459 44.5893 136.325C41.9493 127.845 40.8693 118.859 39.216 110.152C38.256 103.765 37.5093 97.312 37.0827 90.8587C36.9893 90.5787 36.9627 90.272 37.0027 90.0187C37.0027 89.992 37.016 89.9787 37.016 89.952C36.7493 85.5653 36.6293 81.1787 36.7093 76.792C37.0026 70.5253 37.536 64.192 38.8693 58.0453C39.2693 56.0853 39.776 54.152 40.3627 52.2453C40.496 51.992 40.816 51.9787 41.016 52.1254C41.0427 52.152 41.0693 52.1787 41.0827 52.2054C41.136 52.2587 41.1626 52.3254 41.176 52.4054C41.1626 52.9654 41.136 53.5253 41.1093 54.0853C40.7626 62.4586 39.8293 70.7653 39.856 79.1253C44.8293 65.352 54.6027 53.2854 67.0827 45.6587C73.216 42.2587 79.7493 38.3653 86.6693 36.7653C86.696 36.7653 86.7093 36.752 86.7226 36.752C88.6026 36.312 90.5093 36.0453 92.456 36.0186C93.976 35.9786 95.5093 36.0853 97.0693 36.3653C111.709 38.7387 125.123 47.7387 134.029 59.432C139.709 66.8987 145.216 75.3253 147.843 84.4587C147.789 74.3654 146.989 64.272 145.709 54.272C145.656 53.1787 145.549 52.0986 145.989 51.152C146.163 50.9653 146.416 51.0053 146.563 51.1653H146.576C146.603 51.192 146.616 51.2187 146.629 51.2453C146.616 51.2187 146.589 51.192 146.563 51.1653C150.043 58.3653 149.803 66.8854 150.629 74.7253C151.643 85.9787 151.043 97.5787 149.376 108.685C147.963 118.112 146.629 127.619 144.296 136.859C146.083 133.859 147.829 130.819 149.589 127.819C151.989 123.312 154.749 118.872 157.056 114.352C157.109 114.179 157.269 114.045 157.456 114.085C158.096 114.365 157.403 115.299 157.363 115.765ZM164.149 87.2453C165.309 75.9387 165.389 64.112 160.843 53.4987C159.496 50.5387 158.016 47.6587 156.376 44.872C142.896 21.632 120.056 5.01869 92.3093 4.12535C89.296 4.12535 86.576 4.41869 83.7627 4.79202C82.8693 5.00535 81.9627 5.24533 81.0827 5.49866C69.9893 8.32533 59.296 12.632 50.8426 20.3387C41.576 28.7254 34.1493 39.352 28.856 50.6054C28.656 51.0054 28.4693 51.4187 28.2827 51.832C24.8693 59.7653 23.9893 68.0187 23.4027 76.4187C22.9627 82.4987 22.8027 88.4587 23.336 94.4987C23.816 103.032 25.6693 111.005 27.576 119.245C27.136 123.525 27.7893 127.859 28.896 131.939C33.8427 150.139 47.7493 164.365 63.0827 174.432C66.616 176.552 70.3626 178.259 74.1093 179.979C74.7226 180.219 74.4293 181.205 73.8426 181.205C73.7626 181.205 73.6826 181.192 73.6026 181.152C64.5893 178.072 56.0827 173.392 48.736 167.352C50.096 170.965 52.0293 174.299 54.5093 177.165C68.3093 192.059 90.8427 196.605 110.003 191.152C114.576 190.125 118.563 187.659 122.763 185.725C124.109 185.152 125.149 187.152 123.856 187.899C112.416 193.579 99.0427 195.605 86.3627 194.325C77.8027 193.139 69.136 191.405 61.616 187.045C56.496 183.952 51.6427 179.552 48.4827 174.299C45.5093 178.939 48.9626 184.965 51.7093 188.979C63.4693 205.765 86.9893 208.392 105.763 205.219C115.003 203.352 123.909 199.419 130.616 192.792C134.403 189.419 137.909 185.232 138.963 180.192C139.523 177.205 139.616 174.165 138.749 171.272C137.936 172.459 137.069 173.539 136.429 174.365C135.056 176.125 133.336 177.512 131.749 179.045C131.309 179.432 130.949 180.072 130.416 180.299C130.163 180.299 129.936 179.965 130.163 179.725C133.456 176.139 136.283 171.939 137.723 167.272C133.016 170.592 127.963 173.392 122.763 175.672C117.949 178.125 112.883 180.019 107.723 181.725C101.483 183.779 95.2827 187.299 88.7493 187.885C87.0827 187.245 88.2693 185.672 89.6026 185.592C96.896 184.659 103.416 181.099 110.309 178.805C111.216 178.459 112.136 178.112 113.056 177.792C117.816 175.712 122.509 173.472 127.029 171.005C135.056 166.165 142.229 159.979 148.656 153.192C155.349 145.619 160.389 136.005 161.216 125.872C161.203 122.779 159.803 119.832 160.896 116.739C162.883 107.032 163.323 97.112 164.149 87.2453Z" fill="#FAFAFC"/>
<path d="M113.608 74.6227C115.845 75.392 118.055 76.1706 120.264 76.9626C122.783 77.9146 125.248 79.0413 127.501 80.5293C125.393 75.5226 118.136 70.272 112.944 73.732C112.576 74.1573 113.263 74.4973 113.608 74.6227Z" fill="#D8855B"/>
<path d="M69.2039 72.8054C64.9079 73.5841 61.4413 76.8067 59.7946 80.7507C64.4013 77.5267 70.1173 76.0787 75.2573 74.2201V74.2174C74.2586 72.0427 71.1586 72.5147 69.2039 72.8054Z" fill="#D8855B"/>
<path d="M98.2893 120.376C94.792 121.605 91.152 121.512 87.6747 120.301C89.252 122.012 91.5387 123.317 93.9134 123.315C95.756 123.156 97.1933 121.756 98.2893 120.376Z" fill="#FC9595"/>
<path d="M100.757 147.431C95.668 146.295 91.62 147.708 89.04 152.36C90.6293 155.207 92.696 157.216 95.2453 156.925C98.8066 156.108 100.064 151.291 100.757 147.431Z" fill="#FF737D"/>
<path d="M179.189 229.805C170.896 211.779 157.763 196.445 141.083 185.752C141.029 185.712 140.976 185.672 140.923 185.619C140.723 185.472 140.523 185.312 140.309 185.139C139.643 186.619 138.816 188.019 137.843 189.312C131.536 198.165 122.389 203.832 112.296 206.859C111.496 209.979 110.749 213.152 110.069 216.339C107.643 227.659 106.016 239.299 105.376 250.712C105.123 254.605 104.989 258.512 105.029 262.419C105.003 263.085 105.123 264.165 105.056 265.099C120.363 264.165 135.576 261.872 150.296 257.525C161.603 254.045 172.469 249.539 182.509 243.432C183.096 243.112 183.656 242.752 184.229 242.405C182.696 238.139 181.123 233.899 179.189 229.805Z" fill="#1E1EBE"/>
<path d="M109.883 207.525C108.869 209.899 107.909 213.552 107.056 217.379C105.469 224.605 104.283 232.512 104.096 233.952C103.003 242.739 102.056 251.552 102.149 260.432C102.163 262.045 102.136 263.659 102.296 265.259C96.216 265.565 90.1226 265.659 84.0559 265.579C83.9093 261.805 83.6426 258.045 83.3893 254.272C82.3226 241.992 81.5226 229.405 78.7226 217.352C77.9759 214.085 77.0826 210.859 75.9893 207.685C79.3359 208.499 82.696 209.005 85.9626 209.219C93.8693 210.019 102.109 209.525 109.883 207.525Z" fill="#E9F5FF"/>
<path d="M80.856 265.525H80.6293C58.5094 264.979 36.896 258.565 17.0426 249.005C12.1893 246.592 7.38931 243.899 2.98931 240.712C2.97598 240.699 2.96267 240.685 2.94934 240.685C3.50934 239.685 3.62934 238.072 4.14934 237.192C5.41601 233.739 6.68267 230.605 8.34934 227.232C12.856 218.432 19.1227 210.645 25.6827 203.272C31.6293 196.539 38.3627 190.632 45.9493 185.765C46.0293 185.712 46.096 185.672 46.176 185.619C46.3093 185.939 46.456 186.259 46.6027 186.565C51.4827 196.885 62.0426 203.659 73.3093 206.965C73.3093 207.019 73.3227 207.072 73.3493 207.125C74.1627 210.165 74.8693 213.219 75.496 216.285C78.8293 232.472 79.856 248.952 80.856 265.525Z" fill="#1E1EBE"/>
<path d="M182.059 241.071C182.047 241.039 182.036 241.007 182.024 240.973C182.023 240.971 182.021 240.967 182.007 240.925C182.009 240.937 182.015 240.949 182.019 240.961C182.029 240.999 182.045 241.035 182.059 241.071Z" fill="#26073D"/>
<path d="M50.332 142.063C47.3013 136.171 46.1853 129.529 44.86 123.016C42.5 111.436 40.816 99.7148 40.1827 87.9081C41.496 83.7548 43.0213 79.6761 44.72 75.6668C48.2413 67.6388 54.0053 60.2934 60.652 54.3854C68.8413 47.6641 85.2719 37.6161 96.1426 39.3695C113.135 42.0481 127.285 53.9628 136.387 68.2028C142.115 76.0788 146.193 85.2615 147.559 94.9855C146.915 104.221 145.535 113.173 143.901 122.427C142.049 131.048 141.485 140.516 135.797 147.693C126.755 157.839 114.915 168.611 101.589 172.607C99.0306 173.371 96.284 173.728 93.6013 174.039C92.4173 173.673 91.144 173.551 89.9506 173.192C74.844 168.868 57.648 156.147 50.332 142.063ZM94.0693 177.008C103.976 176.987 112.799 172.121 120.599 166.251C125.12 162.943 129.323 159.203 133.292 155.265C137.056 151.643 140.589 147.479 142.58 142.588C145.725 139.219 148.464 135.501 150.691 131.424C153.544 126.512 155.845 121.249 157.367 115.771C157.397 115.3 158.099 114.368 157.463 114.091C157.275 114.049 157.108 114.173 157.061 114.351C154.748 118.876 151.989 123.307 149.587 127.82C147.824 130.825 146.077 133.853 144.295 136.863C146.629 127.612 147.964 118.109 149.376 108.683C151.037 97.5748 151.641 85.9775 150.625 74.7241C149.807 66.8855 150.043 58.3708 146.569 51.1708C146.569 51.1695 146.568 51.1694 146.568 51.1681C146.568 51.1681 146.567 51.1681 146.567 51.1668C146.413 51.0068 146.159 50.9721 145.995 51.1561C145.553 52.0935 145.653 53.1775 145.708 54.2722C146.984 64.2722 147.796 74.3668 147.845 84.4575C145.22 75.3308 139.708 66.8921 134.032 59.4268C125.124 47.7361 111.711 38.7428 97.064 36.3601C86.2173 34.4268 76.2026 40.5988 67.084 45.6561C54.608 53.2881 44.832 65.3455 39.86 79.1188C39.8307 70.2068 40.9013 61.3535 41.1746 52.4055C41.128 52.0095 40.5493 51.8815 40.356 52.2455C37.9053 60.1508 37.1027 68.5388 36.7107 76.7908C36.6253 81.1801 36.7426 85.5708 37.0146 89.9535C37.0106 89.9761 37.0053 89.9975 37.0013 90.0228C36.964 90.2748 36.9946 90.5748 37.0759 90.8561C37.5066 97.3148 38.2587 103.759 39.2213 110.156C40.868 118.857 41.9466 127.839 44.592 136.321C42.7026 133.459 40.8093 130.596 39.02 127.673C36.512 123.556 33.6813 119.644 31.2173 115.501C30.9093 115.056 30.26 113.667 29.6187 114.1C29.52 114.212 29.5067 114.399 29.5987 114.523C34.0027 125.111 40.2333 135.112 47.6066 143.995C55.5053 159.079 76.4053 174.616 92.6586 177.063C93.1573 177.199 93.648 177.16 94.0693 177.008Z" fill="#120F15"/>
<path d="M146.569 51.1707C146.591 51.1933 146.617 51.212 146.632 51.24C146.617 51.2173 146.599 51.188 146.577 51.1613C146.572 51.1547 146.564 51.1454 146.552 51.136C146.557 51.1467 146.561 51.1573 146.567 51.1667C146.568 51.168 146.568 51.168 146.568 51.168C146.569 51.1693 146.569 51.1693 146.569 51.1707Z" fill="#26073D"/>
<path d="M146.569 51.1707C146.569 51.1697 146.569 51.1697 146.568 51.1687C146.568 51.1687 146.568 51.1687 146.567 51.1677C146.567 51.1687 146.568 51.1687 146.568 51.1687C146.568 51.1697 146.569 51.1697 146.569 51.1707Z" fill="#26073D"/>
<path d="M182.509 243.439C172.467 249.545 161.609 254.051 150.3 257.523C135.581 261.872 120.367 264.171 105.051 265.103C105.123 264.169 105.001 263.087 105.025 262.413C104.985 258.517 105.124 254.609 105.38 250.717C106.2 236.069 108.64 221.077 112.295 206.863C122.395 203.829 131.537 198.163 137.843 189.305C138.812 188.02 139.643 186.617 140.313 185.143C140.575 185.353 140.845 185.551 141.083 185.755C157.756 196.448 170.9 211.773 179.187 229.801C181.128 233.893 182.699 238.141 184.225 242.404C183.659 242.759 183.092 243.112 182.509 243.439ZM102.292 265.261C96.2159 265.565 90.1292 265.657 84.0532 265.58C83.9119 261.808 83.6373 258.044 83.3906 254.276C82.0253 238.673 81.1093 222.577 75.9946 207.688C79.3319 208.496 82.696 209.012 85.9626 209.223C93.864 210.023 102.105 209.52 109.881 207.531C106.991 214.372 104.388 231.745 104.099 233.945C103.007 242.741 102.051 251.552 102.149 260.436C102.161 262.045 102.14 263.659 102.292 265.261ZM80.6293 265.525C58.5093 264.977 36.8959 258.568 17.0413 248.999C12.1906 246.596 7.38395 243.904 2.98795 240.709C2.97462 240.699 2.95994 240.689 2.94661 240.681C3.50794 239.688 3.62794 238.075 4.14394 237.189C5.41194 233.743 6.68125 230.608 8.35325 227.227C12.8559 218.428 19.1279 210.641 25.6866 203.273C31.6346 196.532 38.3639 190.627 45.9519 185.764C46.0319 185.716 46.0999 185.667 46.1732 185.617C50.8412 196.472 61.6946 203.557 73.3026 206.964C73.3159 207.02 73.3266 207.076 73.3439 207.132C78.4453 226.231 79.6746 245.824 80.8573 265.529C80.7826 265.527 80.704 265.527 80.6293 265.525ZM28.8946 131.937C27.7906 127.855 27.1386 123.529 27.5812 119.248C25.6706 111.009 23.8226 103.035 23.332 94.4988C22.8053 88.4588 22.9626 82.5041 23.4013 76.4201C23.9893 68.0215 24.8679 59.7708 28.2853 51.8374C33.6186 40.1254 41.2399 29.0348 50.8479 20.3374C59.2959 12.6308 69.9946 8.32144 81.0773 5.49344C81.9679 5.24277 82.8666 5.00947 83.7693 4.7868C86.5759 4.4188 89.2999 4.12547 92.3092 4.12814C123.383 5.12814 148.293 25.8494 160.841 53.4961C165.392 64.1121 165.311 75.9361 164.152 87.2508C163.328 97.1095 162.885 107.028 160.897 116.745C159.801 119.832 161.207 122.777 161.22 125.879C160.388 136.012 155.353 145.616 148.659 153.192C142.227 159.976 135.059 166.163 127.023 171.001C122.507 173.471 117.823 175.711 113.057 177.792C112.136 178.117 111.22 178.452 110.312 178.8C103.415 181.1 96.8919 184.656 89.6039 185.599C88.2692 185.668 87.0799 187.245 88.7493 187.884C95.2813 187.295 101.483 183.784 107.719 181.723C112.885 180.017 117.955 178.124 122.759 175.673C127.957 173.397 133.012 170.585 137.724 167.272C136.28 171.94 133.453 176.143 130.169 179.731C129.936 179.967 130.16 180.3 130.413 180.3C130.952 180.068 131.305 179.435 131.752 179.044C133.331 177.509 135.057 176.129 136.424 174.36C137.071 173.532 137.931 172.459 138.748 171.271C139.612 174.165 139.528 177.205 138.967 180.191C137.913 185.229 134.401 189.412 130.619 192.797C123.915 199.421 115.008 203.356 105.757 205.215C86.9933 208.388 63.4652 205.768 51.7119 188.984C48.9679 184.969 45.5093 178.939 48.4799 174.3C51.6413 179.557 56.4973 183.945 61.6213 187.049C69.1346 191.399 77.8026 193.137 86.3653 194.325C99.0373 195.609 112.42 193.577 123.855 187.897C125.156 187.152 124.105 185.149 122.767 185.725C118.563 187.656 114.581 190.127 110.007 191.152C90.8386 196.603 68.3092 192.063 54.5092 177.16C52.0279 174.295 50.0919 170.961 48.7386 167.357C56.0826 173.389 64.5906 178.073 73.6026 181.156C73.6853 181.189 73.7626 181.205 73.8372 181.205C74.4239 181.205 74.7199 180.223 74.1079 179.972C70.3679 178.26 66.6186 176.551 63.0812 174.437C47.7439 164.363 33.8426 150.133 28.8946 131.937ZM141.184 182.909C142.355 179.308 142.552 175.419 141.389 171.753C141.117 171.041 140.749 169.728 140.111 169.043C140.884 167.571 141.397 166.047 141.255 164.661C149.084 158.491 155.715 150.849 160.055 141.929C161.699 138.408 162.943 134.625 163.464 130.788C164.133 127.356 163.037 123.856 163.569 120.463C166.132 109.149 166.608 97.5095 167.559 85.9868C168.268 77.9935 168.599 69.8721 166.876 61.9748C164.752 50.9882 158.524 41.3935 151.991 32.5108C140.965 17.8308 125.044 6.82677 107.027 2.85477C100.133 1.3601 91.4666 -0.202541 84.0799 1.44546C84.0773 1.44546 84.0746 1.44813 84.0732 1.44813C73.6492 3.72813 63.2799 7.13343 54.4826 13.3214C40.9773 22.9881 30.9626 37.2481 24.4719 52.4268C21.1333 60.9934 20.4666 70.2428 19.9106 79.3374C19.2639 89.9641 20.0506 100.696 22.524 111.056C23.316 114.317 23.936 117.625 24.796 120.863C24.9146 126.875 25.556 132.92 27.8573 138.535C31.512 148.504 37.6186 157.189 45.2559 164.3C45.1306 164.628 45.0679 164.981 45.0999 165.3C45.4333 167.416 46.0799 169.451 46.9546 171.389C44.7413 172.744 44.072 176.263 44.16 178.688C44.4293 180.361 44.8413 181.965 45.3639 183.501C45.2093 183.56 45.0479 183.631 44.8786 183.717C28.3426 192.893 11.3706 213.321 3.65462 230.493C2.63462 232.833 1.78529 235.24 0.957286 237.649C0.678619 238.607 -0.0507533 239.991 0.45058 240.875C0.161247 243.496 7.31595 247.169 9.32128 248.443C29.9613 259.641 52.9239 267.292 76.4719 268.531C112.716 269.939 150.985 265.892 182.665 246.973C183.665 246.213 185.152 245.619 186.169 244.725C186.753 244.704 187.341 244.357 187.547 243.801C187.935 242.607 187.195 241.396 186.881 240.255C178.785 217.02 163.347 194.551 141.184 182.909Z" fill="#120F15"/>
<path d="M73.4053 101.259C70.7533 99.6253 67.464 99.324 64.4626 99.9827C63.0306 100.068 60.1119 101.805 62.0506 103.357C63.4426 103.907 64.9547 103.011 66.4013 103.033C69.1573 102.735 71.828 103.663 74.1493 105.024C75.2226 105.344 76.196 104.097 75.6133 103.133C75.0266 102.297 74.2893 101.88 73.4053 101.259Z" fill="#120F15"/>
<path d="M121.636 99.3693C118.581 99.164 115.559 100.093 113.037 101.796C112.184 102.359 110.62 103.137 111.464 104.348C112.377 105.471 113.444 104.164 114.371 103.776C117.375 102.175 120.908 101.915 124.121 103.145C125.527 103.605 126.628 101.824 125.527 100.807C124.452 99.9067 122.999 99.552 121.636 99.3693Z" fill="#120F15"/>
<path d="M75.2574 74.2201C70.1174 76.0788 64.4013 77.5268 59.7947 80.7508C61.4413 76.8068 64.908 73.5841 69.204 72.8055C71.1586 72.5148 74.2587 72.0428 75.2574 74.2175V74.2201ZM67.7294 70.8521C63.296 72.1961 57.2173 78.0175 57.7813 82.9095C57.964 83.2761 58.476 83.4148 58.832 83.2241C61.2214 82.5001 63.3 80.6881 65.7547 79.8921C69.34 78.2788 73.4214 77.7321 76.9014 76.0015C77.912 75.1121 77.9027 73.6255 77.1827 72.5641C75.036 69.7908 70.7974 70.0241 67.7294 70.8521Z" fill="#120F15"/>
<path d="M112.944 73.7321C118.136 70.2721 125.393 75.5228 127.501 80.5294C125.248 79.0414 122.783 77.9148 120.264 76.9628C118.055 76.1708 115.845 75.3921 113.608 74.6228C113.263 74.4975 112.576 74.1574 112.944 73.7321ZM116.608 78.0201C120.199 79.0441 123.812 80.2414 127 82.2401C127.288 82.4974 127.761 82.7641 128.177 82.7895C128.943 83.3681 129.988 82.3281 129.408 81.5548C129.408 81.5361 129.415 81.5188 129.409 81.5001C127.893 76.3161 123.779 71.6641 118.384 70.4481C115.26 69.3708 107.984 71.6388 111.28 75.7508C112.724 77.1334 114.771 77.4401 116.608 78.0201Z" fill="#120F15"/>
<path d="M98.2893 120.376C97.1933 121.756 95.756 123.156 93.9133 123.315C91.5387 123.317 89.252 122.012 87.6747 120.301C91.152 121.512 94.792 121.605 98.2893 120.376ZM92.6187 124.909C96.0947 125.687 99.3853 123.42 100.936 120.404C101.267 119.773 101.612 119.019 101.363 118.304C101.096 117.552 100.147 117.353 99.5293 117.809C97.5813 118.796 95.34 118.968 93.1893 119.133C91.748 119.196 90.1453 119.419 88.688 119.025C87.5533 118.595 86.4147 117.795 85.124 117.732C84.3333 117.932 84.9387 118.776 85.308 119.115C87.0907 121.577 89.488 124.257 92.6187 124.909Z" fill="#120F15"/>
<path d="M89.04 152.36C91.62 147.708 95.668 146.295 100.757 147.431C100.064 151.291 98.8066 156.108 95.2453 156.925C92.696 157.216 90.6293 155.207 89.04 152.36ZM88.0947 150.46C86.212 146.201 85.2133 140.953 85.0973 138.348C86.7907 138.339 88.48 138.9 90.1773 138.953C92.1147 138.855 94.0453 138.453 95.9066 137.917C97.5546 137.631 99.3773 135.919 101.012 136.704C102.48 139.016 101.447 141.988 101.224 144.652C101.132 145.185 101.036 145.796 100.928 146.445C100.365 146.281 99.7573 146.201 99.2253 146.06C96.668 145.34 93.9786 145.823 91.7093 147.165C90.4986 147.768 88.888 149.028 88.0947 150.46ZM103.687 147.959C104.36 144.077 105.58 139.376 102.817 136.043C102.132 134.84 100.747 134.349 99.4267 134.667C95.8453 135.285 92.356 136.929 88.672 136.709C87.1347 136.748 84.92 135.748 83.5573 136.896C82.4093 138.897 83.3 141.513 83.5693 143.729C84.896 149.907 87.1533 158.465 94.38 159.693C100.515 160.324 102.627 152.7 103.687 147.959Z" fill="#120F15"/>
<path d="M73.3493 207.125C74.1627 210.165 74.8694 213.219 75.496 216.285C54.3227 208.592 48.0027 191.432 46.6027 186.565C51.4827 196.885 62.0426 203.659 73.3093 206.965C73.3093 207.019 73.3227 207.072 73.3493 207.125Z" fill="#282880"/>
<path d="M109.883 207.525C108.869 209.899 107.909 213.552 107.056 217.379C99.9226 219.605 91.9893 220.325 83.6026 218.579C81.8959 218.219 80.2826 217.819 78.7226 217.352C77.9759 214.085 77.0826 210.859 75.9893 207.685C79.3359 208.499 82.696 209.005 85.9626 209.219C93.8693 210.019 102.109 209.525 109.883 207.525Z" fill="#232393"/>
<path d="M140.923 185.619C140.536 193.245 128.216 209.459 110.069 216.339C110.749 213.152 111.496 209.979 112.296 206.859C122.389 203.832 131.536 198.165 137.843 189.312C138.816 188.019 139.643 186.619 140.309 185.139C140.523 185.312 140.723 185.472 140.923 185.619Z" fill="#282880"/>
<path d="M160.896 116.739C159.803 119.832 161.203 122.779 161.216 125.872C160.389 136.005 155.349 145.619 148.656 153.192C142.229 159.979 135.056 166.165 127.029 171.005C122.509 173.472 117.816 175.712 113.056 177.792C112.136 178.112 111.216 178.459 110.309 178.805C103.416 181.099 96.896 184.659 89.6026 185.592C88.2693 185.672 87.0827 187.245 88.7493 187.885C95.2827 187.299 101.483 183.779 107.723 181.725C112.883 180.019 117.949 178.125 122.763 175.672C127.963 173.392 133.016 170.592 137.723 167.272C136.283 171.939 133.456 176.139 130.163 179.725C129.936 179.965 130.163 180.299 130.416 180.299C130.949 180.072 131.309 179.432 131.749 179.045C133.336 177.512 135.056 176.125 136.429 174.365C137.069 173.539 137.936 172.459 138.749 171.272C139.616 174.165 139.523 177.205 138.963 180.192C137.909 185.232 134.403 189.419 130.616 192.792C123.909 199.419 115.003 203.352 105.763 205.219C86.9893 208.392 63.4693 205.765 51.7093 188.979C48.9626 184.965 45.5093 178.939 48.4827 174.299C51.6427 179.552 56.496 183.952 61.616 187.045C69.136 191.405 77.8027 193.139 86.3627 194.325C99.0427 195.605 112.416 193.579 123.856 187.899C125.149 187.152 124.109 185.152 122.763 185.725C118.563 187.659 114.576 190.125 110.003 191.152C90.8427 196.605 68.3093 192.059 54.5093 177.165C52.0293 174.299 50.096 170.965 48.736 167.352C56.0827 173.392 64.5893 178.072 73.6026 181.152C73.6826 181.192 73.7626 181.205 73.8426 181.205C74.4293 181.205 74.7226 180.219 74.1093 179.979C70.3626 178.259 66.616 176.552 63.0827 174.432C47.7493 164.365 33.8427 150.139 28.896 131.939C27.7893 127.859 27.136 123.525 27.576 119.245C25.6693 111.005 23.816 103.032 23.336 94.4987C22.8027 88.4587 22.9627 82.4987 23.4027 76.4187C23.9893 68.0187 24.8693 59.7653 28.2827 51.832C28.4693 51.4187 28.656 51.0054 28.856 50.6054C27.7626 56.552 26.9893 62.5654 26.5493 68.6054C26.1227 74.3787 25.9893 80.272 27.5627 85.832C28.376 88.672 29.616 91.392 31.2293 93.8587C33.856 90.4987 33.976 85.8853 34.256 81.6187C34.8026 73.6053 36.3493 65.672 38.8693 58.0453C37.536 64.192 37.0026 70.5253 36.7093 76.792C36.6293 81.1787 36.7493 85.5653 37.016 89.952C37.016 89.9787 37.0027 89.992 37.0027 90.0187C36.9627 90.272 36.9893 90.5787 37.0827 90.8587C37.5093 97.312 38.256 103.765 39.216 110.152C40.8693 118.859 41.9493 127.845 44.5893 136.325C42.696 133.459 40.8027 130.592 39.016 127.672C36.5093 123.552 33.6827 119.645 31.216 115.499C30.9093 115.059 30.256 113.672 29.616 114.099C29.5227 114.219 29.5093 114.405 29.6027 114.525C34.0027 125.112 40.2293 135.112 47.6027 143.992C55.5093 159.085 76.4026 174.619 92.656 177.059C93.1626 177.205 93.6427 177.165 94.0693 177.005C103.976 176.992 112.803 172.125 120.603 166.245C125.123 162.939 129.323 159.205 133.296 155.272C137.056 151.645 140.589 147.485 142.576 142.592C145.723 139.219 148.469 135.499 150.696 131.419C153.549 126.512 155.843 121.245 157.363 115.765C157.403 115.299 158.096 114.365 157.456 114.085C157.269 114.045 157.109 114.179 157.056 114.352C154.749 118.872 151.989 123.312 149.589 127.819C147.829 130.819 146.083 133.859 144.296 136.859C146.629 127.619 147.963 118.112 149.376 108.685C151.043 97.5787 151.643 85.9787 150.629 74.7253C149.803 66.8854 150.043 58.3653 146.563 51.1653C146.416 51.0053 146.163 50.9653 145.989 51.152C145.549 52.0986 145.656 53.1787 145.709 54.272C146.989 64.272 147.789 74.3654 147.843 84.4587C145.216 75.3253 139.709 66.8987 134.029 59.432C125.123 47.7387 111.709 38.7387 97.0693 36.3653C95.5093 36.0853 93.976 35.9786 92.456 36.0186C92.896 35.9653 93.3493 35.9387 93.7893 35.912C97.4426 35.6853 101.136 35.7653 104.696 36.5787C112.123 38.2853 118.189 40.352 124.256 44.9787C130.323 49.592 135.563 55.192 141.349 60.1653C141.803 60.552 142.416 60.952 142.936 60.6853C143.296 60.4986 143.443 60.0853 143.549 59.6987C144.856 54.6587 142.963 49.392 141.096 44.5387C139.963 41.6054 138.843 38.672 137.723 35.752C140.283 36.9653 142.003 39.4187 143.523 41.832C148.229 49.312 152.149 57.2987 155.163 65.6054C155.669 67.0187 156.736 68.752 158.163 68.3254C158.803 60.472 158.176 52.5387 156.376 44.872C158.016 47.6587 159.496 50.5387 160.843 53.4987C165.389 64.112 165.309 75.9387 164.149 87.2453C163.323 97.112 162.883 107.032 160.896 116.739Z" fill="#FAFAFC"/>
<path d="M39.856 79.1255C39.8293 70.7655 40.7626 62.4588 41.1093 54.0855C41.136 56.3255 41.1626 58.5788 41.1893 60.8188C41.2026 62.0055 41.4426 63.5122 42.5893 63.8055C43.656 64.0722 44.576 63.0722 45.2293 62.1922C55.1627 48.8855 70.3493 39.6721 86.6693 36.7655C79.7493 38.3655 73.216 42.2588 67.0827 45.6588C54.6027 53.2855 44.8293 65.3522 39.856 79.1255Z" fill="#FAFAFC"/>
<path d="M41.0827 52.2053C41.0693 52.1787 41.0427 52.152 41.016 52.1253C41.0427 52.072 41.056 52.0186 41.0827 51.9653V52.2053Z" fill="#9170C1"/>
</svg>
