<svg width="20" height="16" viewBox="0 0 20 16" fill="none" xmlns="http://www.w3.org/2000/svg">
<path d="M2.80002 0.800049C2.1635 0.800049 1.55306 1.05291 1.10297 1.50299C0.652881 1.95308 0.400024 2.56353 0.400024 3.20005V4.40005H19.6V3.20005C19.6 2.56353 19.3472 1.95308 18.8971 1.50299C18.447 1.05291 17.8365 0.800049 17.2 0.800049H2.80002Z" fill="#E2E2E2"/>
<path fill-rule="evenodd" clip-rule="evenodd" d="M19.6 6.80005H0.400024V12.8C0.400024 13.4366 0.652881 14.047 1.10297 14.4971C1.55306 14.9472 2.1635 15.2 2.80002 15.2H17.2C17.8365 15.2 18.447 14.9472 18.8971 14.4971C19.3472 14.047 19.6 13.4366 19.6 12.8V6.80005ZM2.80002 11.6C2.80002 11.2818 2.92645 10.9766 3.1515 10.7515C3.37654 10.5265 3.68176 10.4 4.00002 10.4H5.20002C5.51828 10.4 5.82351 10.5265 6.04855 10.7515C6.2736 10.9766 6.40002 11.2818 6.40002 11.6C6.40002 11.9183 6.2736 12.2235 6.04855 12.4486C5.82351 12.6736 5.51828 12.8 5.20002 12.8H4.00002C3.68176 12.8 3.37654 12.6736 3.1515 12.4486C2.92645 12.2235 2.80002 11.9183 2.80002 11.6ZM8.80002 10.4C8.48176 10.4 8.17654 10.5265 7.9515 10.7515C7.72645 10.9766 7.60002 11.2818 7.60002 11.6C7.60002 11.9183 7.72645 12.2235 7.9515 12.4486C8.17654 12.6736 8.48176 12.8 8.80002 12.8H10C10.3183 12.8 10.6235 12.6736 10.8486 12.4486C11.0736 12.2235 11.2 11.9183 11.2 11.6C11.2 11.2818 11.0736 10.9766 10.8486 10.7515C10.6235 10.5265 10.3183 10.4 10 10.4H8.80002Z" fill="#E2E2E2"/>
</svg>
