<svg width="38" height="30" viewBox="0 0 38 30" fill="none" xmlns="http://www.w3.org/2000/svg">
<path d="M0.625 9.17261V24.1876C0.625 25.58 1.17812 26.9154 2.16269 27.8999C3.14726 28.8845 4.48261 29.4376 5.875 29.4376H32.125C33.5174 29.4376 34.8527 28.8845 35.8373 27.8999C36.8219 26.9154 37.375 25.58 37.375 24.1876V9.17261L21.751 18.7854C20.9237 19.2944 19.9714 19.5638 19 19.5638C18.0286 19.5638 17.0763 19.2944 16.249 18.7854L0.625 9.17261Z" fill="#1E1EBE"/>
<path d="M37.375 6.089V5.8125C37.375 4.42011 36.8219 3.08476 35.8373 2.10019C34.8527 1.11562 33.5174 0.5625 32.125 0.5625H5.875C4.48261 0.5625 3.14726 1.11562 2.16269 2.10019C1.17812 3.08476 0.625 4.42011 0.625 5.8125V6.089L17.6245 16.5505C18.0382 16.805 18.5143 16.9397 19 16.9397C19.4857 16.9397 19.9618 16.805 20.3755 16.5505L37.375 6.089Z" fill="#1E1EBE"/>
</svg>
