<svg width="34" height="26" viewBox="0 0 34 26" fill="none" xmlns="http://www.w3.org/2000/svg">
<path d="M4.39995 0.400024C3.28604 0.400024 2.21776 0.842523 1.4301 1.63018C0.64245 2.41783 0.199951 3.48611 0.199951 4.60002V6.70002H33.8V4.60002C33.8 3.48611 33.3575 2.41783 32.5698 1.63018C31.7821 0.842523 30.7139 0.400024 29.6 0.400024H4.39995Z" fill="#1E1EBE"/>
<path fill-rule="evenodd" clip-rule="evenodd" d="M33.8 10.9H0.199951V21.4C0.199951 22.5139 0.64245 23.5822 1.4301 24.3699C2.21776 25.1575 3.28604 25.6 4.39995 25.6H29.6C30.7139 25.6 31.7821 25.1575 32.5698 24.3699C33.3575 23.5822 33.8 22.5139 33.8 21.4V10.9ZM4.39995 19.3C4.39995 18.7431 4.6212 18.2089 5.01503 17.8151C5.40885 17.4213 5.943 17.2 6.49995 17.2H8.59995C9.15691 17.2 9.69105 17.4213 10.0849 17.8151C10.4787 18.2089 10.7 18.7431 10.7 19.3C10.7 19.857 10.4787 20.3911 10.0849 20.7849C9.69105 21.1788 9.15691 21.4 8.59995 21.4H6.49995C5.943 21.4 5.40885 21.1788 5.01503 20.7849C4.6212 20.3911 4.39995 19.857 4.39995 19.3ZM14.9 17.2C14.343 17.2 13.8089 17.4213 13.415 17.8151C13.0212 18.2089 12.8 18.7431 12.8 19.3C12.8 19.857 13.0212 20.3911 13.415 20.7849C13.8089 21.1788 14.343 21.4 14.9 21.4H17C17.5569 21.4 18.091 21.1788 18.4849 20.7849C18.8787 20.3911 19.1 19.857 19.1 19.3C19.1 18.7431 18.8787 18.2089 18.4849 17.8151C18.091 17.4213 17.5569 17.2 17 17.2H14.9Z" fill="#1E1EBE"/>
</svg>
