<svg width="28" height="29" viewBox="0 0 28 29" fill="none" xmlns="http://www.w3.org/2000/svg">
<g clip-path="url(#clip0_23_821)">
<path d="M27.6889 14.8104C27.6889 13.6801 27.595 12.8553 27.3919 12H14.1842V17.1014H21.9368C21.7806 18.3692 20.9366 20.2784 19.0609 21.5614L19.0346 21.7322L23.2106 24.8935L23.4999 24.9217C26.157 22.5237 27.6889 18.9954 27.6889 14.8104" fill="#4285F4"/>
<path d="M14.1843 28.2515C17.9824 28.2515 21.1709 27.0295 23.4999 24.9218L19.0609 21.5614C17.873 22.3709 16.2787 22.9361 14.1843 22.9361C10.4643 22.9361 7.30695 20.5381 6.18146 17.2237L6.01649 17.2374L1.67422 20.5213L1.61743 20.6755C3.9307 25.166 8.68233 28.2515 14.1843 28.2515Z" fill="#34A853"/>
<path d="M6.18147 17.2236C5.8845 16.3683 5.71263 15.4518 5.71263 14.5049C5.71263 13.5578 5.8845 12.6414 6.16585 11.7861L6.15798 11.6039L1.76129 8.26726L1.61744 8.33412C0.664026 10.1976 0.116959 12.2901 0.116959 14.5049C0.116959 16.7196 0.664026 18.812 1.61744 20.6755L6.18147 17.2236" fill="#FBBC05"/>
<path d="M14.1843 6.07363C16.8258 6.07363 18.6076 7.18863 19.6236 8.1204L23.5937 4.33244C21.1554 2.11772 17.9824 0.758331 14.1843 0.758331C8.68234 0.758331 3.9307 3.84365 1.61743 8.33416L6.16584 11.7861C7.30696 8.47167 10.4643 6.07363 14.1843 6.07363" fill="#EB4335"/>
</g>
<defs>
<clipPath id="clip0_23_821">
<rect width="27.5879" height="27.5879" fill="white" transform="translate(0.115524 0.758316)"/>
</clipPath>
</defs>
</svg>
