<svg width="38" height="32" viewBox="0 0 38 32" fill="none" xmlns="http://www.w3.org/2000/svg">
<path d="M25.2999 6.59999C25.2999 8.27085 24.6361 9.87328 23.4546 11.0548C22.2732 12.2362 20.6707 12.9 18.9999 12.9C17.329 12.9 15.7266 12.2362 14.5451 11.0548C13.3636 9.87328 12.6999 8.27085 12.6999 6.59999C12.6999 4.92912 13.3636 3.32669 14.5451 2.14522C15.7266 0.963736 17.329 0.299988 18.9999 0.299988C20.6707 0.299988 22.2732 0.963736 23.4546 2.14522C24.6361 3.32669 25.2999 4.92912 25.2999 6.59999ZM35.7999 10.8C35.7999 11.9139 35.3574 12.9822 34.5697 13.7698C33.7821 14.5575 32.7138 15 31.5999 15C30.486 15 29.4177 14.5575 28.63 13.7698C27.8424 12.9822 27.3999 11.9139 27.3999 10.8C27.3999 9.68608 27.8424 8.61779 28.63 7.83014C29.4177 7.04249 30.486 6.59999 31.5999 6.59999C32.7138 6.59999 33.7821 7.04249 34.5697 7.83014C35.3574 8.61779 35.7999 9.68608 35.7999 10.8ZM27.3999 25.5C27.3999 23.2722 26.5149 21.1356 24.9396 19.5603C23.3643 17.985 21.2277 17.1 18.9999 17.1C16.772 17.1 14.6355 17.985 13.0602 19.5603C11.4849 21.1356 10.5999 23.2722 10.5999 25.5V31.8H27.3999V25.5ZM10.5999 10.8C10.5999 11.9139 10.1574 12.9822 9.36971 13.7698C8.58205 14.5575 7.51376 15 6.39986 15C5.28595 15 4.21766 14.5575 3.43001 13.7698C2.64235 12.9822 2.19985 11.9139 2.19985 10.8C2.19985 9.68608 2.64235 8.61779 3.43001 7.83014C4.21766 7.04249 5.28595 6.59999 6.39986 6.59999C7.51376 6.59999 8.58205 7.04249 9.36971 7.83014C10.1574 8.61779 10.5999 9.68608 10.5999 10.8ZM31.5999 31.8V25.5C31.6029 23.3649 31.0608 21.2644 30.0249 19.3974C30.9559 19.1591 31.929 19.1367 32.8701 19.3317C33.8111 19.5267 34.6952 19.9341 35.4548 20.5228C36.2144 21.1115 36.8296 21.8659 37.2533 22.7284C37.6771 23.591 37.8982 24.539 37.8999 25.5V31.8H31.5999ZM7.97486 19.3974C6.93903 21.2644 6.39691 23.3649 6.39986 25.5V31.8H0.0998541V25.5C0.0994493 24.5383 0.319227 23.5892 0.742343 22.7256C1.16546 21.862 1.78068 21.1066 2.54086 20.5176C3.30104 19.9285 4.18599 19.5212 5.12791 19.3271C6.06982 19.1329 7.04368 19.157 7.97486 19.3974Z" fill="#1E1EBE"/>
</svg>
