<svg width="20" height="20" viewBox="0 0 20 20" fill="none" xmlns="http://www.w3.org/2000/svg">
<path d="M10.4728 0.495993C10.3234 0.431949 10.1626 0.398926 10 0.398926C9.83747 0.398926 9.67662 0.431949 9.52722 0.495993L1.12722 4.09599C0.910753 4.18821 0.726171 4.34203 0.596432 4.53831C0.466693 4.7346 0.397522 4.9647 0.397522 5.19999C0.397522 5.43528 0.466693 5.66538 0.596432 5.86167C0.726171 6.05796 0.910753 6.21178 1.12722 6.30399L4.30002 7.66119C4.41779 7.52799 4.56371 7.42264 4.72722 7.35279L9.52722 5.29599C9.67247 5.23126 9.82914 5.19603 9.98812 5.19237C10.1471 5.18871 10.3052 5.21669 10.4533 5.27468C10.6014 5.33267 10.7365 5.41951 10.8507 5.53016C10.9649 5.6408 11.056 5.77305 11.1186 5.91921C11.1813 6.06537 11.2143 6.22252 11.2157 6.38154C11.2171 6.54056 11.1869 6.69827 11.1268 6.84551C11.0667 6.99274 10.9779 7.12656 10.8657 7.23919C10.7534 7.35183 10.6199 7.44102 10.4728 7.50159L7.20042 8.90559L9.52842 9.90279C9.67765 9.96667 9.83829 9.99961 10.0006 9.99961C10.1629 9.99961 10.3236 9.96667 10.4728 9.90279L18.8728 6.30279C19.0886 6.21023 19.2724 6.05642 19.4016 5.8604C19.5308 5.66438 19.5997 5.43476 19.5997 5.19999C19.5997 4.96522 19.5308 4.73561 19.4016 4.53959C19.2724 4.34357 19.0886 4.18975 18.8728 4.09719L10.4728 0.497193V0.495993ZM1.97202 9.27639L4.00002 10.144V15.0664C3.58452 14.9719 3.16378 14.9022 2.74002 14.8576C2.46659 14.8289 2.21133 14.7071 2.01692 14.5127C1.82251 14.3183 1.70076 14.063 1.67202 13.7896C1.51421 12.2787 1.61567 10.7519 1.97202 9.27519V9.27639ZM9.16002 17.8876C8.34884 17.0917 7.41744 16.4283 6.40002 15.922V11.1736L8.58162 12.1096C9.02982 12.3017 9.51238 12.4008 10 12.4008C10.4877 12.4008 10.9702 12.3017 11.4184 12.1096L18.028 9.27639C18.3865 10.7528 18.488 12.2799 18.328 13.7908C18.2993 14.0642 18.1775 14.3195 17.9831 14.5139C17.7887 14.7083 17.5334 14.8301 17.26 14.8588C14.8391 15.1132 12.5759 16.1809 10.84 17.8876C10.6157 18.1075 10.3141 18.2306 10 18.2306C9.68592 18.2306 9.38434 18.1075 9.16002 17.8876ZM5.20002 19.6C5.51828 19.6 5.8235 19.4736 6.04855 19.2485C6.27359 19.0235 6.40002 18.7183 6.40002 18.4V15.922C5.63682 15.5428 4.83113 15.256 4.00002 15.0676V18.4C4.00002 18.7183 4.12645 19.0235 4.35149 19.2485C4.57654 19.4736 4.88176 19.6 5.20002 19.6Z" fill="#E2E2E2"/>
</svg>
