<svg width="34" height="34" viewBox="0 0 34 34" fill="none" xmlns="http://www.w3.org/2000/svg">
<path fill-rule="evenodd" clip-rule="evenodd" d="M6.49995 4.40001V10.7H4.39995C3.28604 10.7 2.21776 11.1425 1.4301 11.9302C0.64245 12.7178 0.199951 13.7861 0.199951 14.9V21.2C0.199951 22.3139 0.64245 23.3822 1.4301 24.1699C2.21776 24.9575 3.28604 25.4 4.39995 25.4H6.49995V29.6C6.49995 30.7139 6.94245 31.7822 7.7301 32.5699C8.51776 33.3575 9.58604 33.8 10.7 33.8H23.3C24.4139 33.8 25.4821 33.3575 26.2698 32.5699C27.0575 31.7822 27.5 30.7139 27.5 29.6V25.4H29.6C30.7139 25.4 31.7821 24.9575 32.5698 24.1699C33.3575 23.3822 33.8 22.3139 33.8 21.2V14.9C33.8 13.7861 33.3575 12.7178 32.5698 11.9302C31.7821 11.1425 30.7139 10.7 29.6 10.7H27.5V4.40001C27.5 3.2861 27.0575 2.21782 26.2698 1.43016C25.4821 0.642511 24.4139 0.200012 23.3 0.200012H10.7C9.58604 0.200012 8.51776 0.642511 7.7301 1.43016C6.94245 2.21782 6.49995 3.2861 6.49995 4.40001ZM23.3 4.40001H10.7V10.7H23.3V4.40001ZM23.3 21.2H10.7V29.6H23.3V21.2Z" fill="#1E1EBE"/>
</svg>
