<svg width="49" height="31" viewBox="0 0 49 31" fill="none" xmlns="http://www.w3.org/2000/svg">
<path d="M34.7819 9.18677H34.7457V9.19193C34.7561 9.19193 34.7664 9.19193 34.7819 9.18677Z" fill="white"/>
<path d="M35.0146 8.85199V30.2754H40.0377V14.2178C40.0377 13.0188 39.3998 9.39657 35.0146 8.85199Z" fill="white"/>
<path d="M8.30519 26.5483C8.94304 26.5483 9.46627 26.4683 9.8699 26.3035C10.2735 26.1386 10.5925 25.9287 10.8217 25.6739C11.0509 25.4141 11.2054 25.1244 11.2951 24.7996C11.3798 24.4749 11.4246 24.1451 11.4246 23.8104C11.4246 23.4257 11.3748 23.086 11.2751 22.7762C11.1755 22.4714 11.0011 22.2116 10.7619 22.0018C10.5177 21.792 10.1988 21.6271 9.79515 21.5122C9.3965 21.3973 8.88822 21.3423 8.28028 21.3423H4.90171V26.5483H8.30519ZM4.90171 12.9388V18.0998H7.41819C7.95139 18.0998 8.43476 18.0599 8.86331 17.9849C9.29186 17.91 9.65563 17.7751 9.9596 17.5852C10.2586 17.3954 10.4878 17.1306 10.6473 16.7958C10.8067 16.4611 10.8815 16.0414 10.8815 15.5318C10.8815 15.0322 10.8217 14.6225 10.6971 14.2928C10.5725 13.963 10.3832 13.6982 10.124 13.4984C9.86492 13.2986 9.54101 13.1537 9.14236 13.0687C8.74869 12.9838 8.2753 12.9388 7.73213 12.9388H4.89672H4.90171ZM7.73712 9.31165C9.17724 9.31165 10.4031 9.44654 11.4147 9.71134C12.4263 9.98113 13.2535 10.3558 13.8913 10.8455C14.5291 11.3351 14.9976 11.9246 15.2866 12.6241C15.5756 13.3235 15.7251 14.1029 15.7251 14.9623C15.7251 15.4319 15.6603 15.8815 15.5258 16.3162C15.3912 16.7509 15.1819 17.1556 14.8979 17.5353C14.6139 17.915 14.2451 18.2597 13.7966 18.5745C13.3481 18.8892 12.81 19.164 12.1821 19.3938C13.5574 19.7286 14.574 20.2681 15.2318 21.0126C15.8895 21.757 16.2184 22.7262 16.2184 23.9103C16.2184 24.7996 16.049 25.629 15.7052 26.3934C15.3613 27.1578 14.858 27.8273 14.1953 28.3918C13.5325 28.9614 12.7153 29.4061 11.7436 29.7258C10.7719 30.0456 9.66061 30.2054 8.40984 30.2054H0.0830078V9.31165H7.75207H7.73712Z" fill="white"/>
<path d="M30.7442 13.5533C30.5997 13.7832 30.4502 13.953 30.2957 14.0679C30.1363 14.1828 29.9369 14.2378 29.6878 14.2378C29.4685 14.2378 29.2343 14.1679 28.9802 14.028C28.726 13.8881 28.442 13.7332 28.1231 13.5633C27.8042 13.3935 27.4404 13.2336 27.0268 13.0987C26.6182 12.9588 26.1498 12.8889 25.6265 12.8889C24.7196 12.8889 24.0469 13.0837 23.6034 13.4684C23.1599 13.8531 22.9356 14.3777 22.9356 15.0372C22.9356 15.4569 23.0702 15.8066 23.3343 16.0864C23.6034 16.3662 23.9522 16.601 24.3857 16.8058C24.8193 17.0057 25.3176 17.1905 25.8757 17.3604C26.4338 17.5302 27.0019 17.7151 27.5849 17.9199C28.1679 18.1248 28.736 18.3646 29.2941 18.6444C29.8522 18.9242 30.3505 19.2739 30.7841 19.7036C31.2176 20.1332 31.5664 20.6578 31.8355 21.2723C32.1046 21.8869 32.2342 22.6313 32.2342 23.5006C32.2342 24.4649 32.0697 25.3692 31.7359 26.2085C31.402 27.0479 30.9186 27.7823 30.2808 28.4118C29.6479 29.0363 28.8656 29.5309 27.9337 29.8907C27.0019 30.2504 25.9454 30.4302 24.7644 30.4302C24.1166 30.4302 23.4539 30.3653 22.7811 30.2304C22.1084 30.0955 21.4556 29.9056 20.8278 29.6658C20.1999 29.421 19.6069 29.1312 19.0538 28.7965C18.5006 28.4618 18.0173 28.0871 17.6086 27.6774L19.0388 25.4141C19.1534 25.2493 19.3029 25.1144 19.4873 25.0044C19.6717 24.8945 19.876 24.8396 20.0952 24.8396C20.3793 24.8396 20.6683 24.9295 20.9623 25.1144C21.2513 25.2942 21.5802 25.4991 21.949 25.7189C22.3177 25.9387 22.7363 26.1386 23.2147 26.3234C23.6931 26.5033 24.2562 26.5982 24.904 26.5982C25.781 26.5982 26.4637 26.4034 26.952 26.0187C27.4404 25.629 27.6796 25.0194 27.6796 24.1751C27.6796 23.6855 27.545 23.2908 27.2809 22.986C27.0118 22.6813 26.663 22.4264 26.2295 22.2266C25.7959 22.0268 25.3026 21.8469 24.7495 21.697C24.1964 21.5421 23.6283 21.3723 23.0453 21.1874C22.4622 21.0026 21.8941 20.7727 21.341 20.4979C20.7879 20.2232 20.2946 19.8684 19.861 19.4238C19.4275 18.9791 19.0737 18.4246 18.8096 17.7601C18.5405 17.0956 18.4109 16.2762 18.4109 15.302C18.4109 14.5176 18.5704 13.7532 18.8843 13.0088C19.1983 12.2643 19.6617 11.5999 20.2746 11.0153C20.8876 10.4308 21.635 9.96612 22.522 9.61639C23.409 9.26666 24.4256 9.0918 25.5717 9.0918C26.2095 9.0918 26.8324 9.14176 27.4404 9.24168C28.0483 9.3416 28.6214 9.49149 29.1646 9.68634C29.7077 9.88118 30.216 10.116 30.6894 10.3908C31.1628 10.6656 31.5814 10.9703 31.9551 11.3151L30.7542 13.5683L30.7442 13.5533Z" fill="white"/>
<path d="M40.5913 1.133C40.5813 0.958136 40.5614 0.783272 40.5365 0.613403C41.6627 1.7775 43.2672 2.45697 45.0064 2.34706C45.8385 2.2921 46.6159 2.06228 47.3086 1.69756C46.7704 2.63683 46.4913 3.74098 46.5661 4.90507C46.6558 6.34396 47.2737 7.62296 48.2105 8.57223C47.7321 8.4773 47.2288 8.43733 46.7156 8.47231C44.6825 8.6022 42.9633 9.78129 42.0563 11.45C41.6975 8.98191 39.789 7.0634 37.3971 6.63873C39.4153 5.6495 40.7458 3.51115 40.5963 1.128L40.5913 1.133Z" fill="#F9AD3C"/>
</svg>
