<svg width="36" height="36" viewBox="0 0 36 36" fill="none" xmlns="http://www.w3.org/2000/svg">
<path fill-rule="evenodd" clip-rule="evenodd" d="M8.8125 0.9375C9.1606 0.9375 9.49444 1.07578 9.74058 1.32192C9.98672 1.56806 10.125 1.9019 10.125 2.25V4.875H25.875V2.25C25.875 1.9019 26.0133 1.56806 26.2594 1.32192C26.5056 1.07578 26.8394 0.9375 27.1875 0.9375C27.5356 0.9375 27.8694 1.07578 28.1156 1.32192C28.3617 1.56806 28.5 1.9019 28.5 2.25V4.875H29.8125C31.2049 4.875 32.5402 5.42812 33.5248 6.41269C34.5094 7.39726 35.0625 8.73261 35.0625 10.125V29.8125C35.0625 31.2049 34.5094 32.5402 33.5248 33.5248C32.5402 34.5094 31.2049 35.0625 29.8125 35.0625H6.1875C4.79511 35.0625 3.45976 34.5094 2.47519 33.5248C1.49062 32.5402 0.9375 31.2049 0.9375 29.8125V10.125C0.9375 8.73261 1.49062 7.39726 2.47519 6.41269C3.45976 5.42812 4.79511 4.875 6.1875 4.875H7.5V2.25C7.5 1.9019 7.63828 1.56806 7.88442 1.32192C8.13056 1.07578 8.4644 0.9375 8.8125 0.9375ZM32.4375 16.6875C32.4375 15.9913 32.1609 15.3236 31.6687 14.8313C31.1764 14.3391 30.5087 14.0625 29.8125 14.0625H6.1875C5.49131 14.0625 4.82363 14.3391 4.33134 14.8313C3.83906 15.3236 3.5625 15.9913 3.5625 16.6875V29.8125C3.5625 30.5087 3.83906 31.1764 4.33134 31.6687C4.82363 32.1609 5.49131 32.4375 6.1875 32.4375H29.8125C30.5087 32.4375 31.1764 32.1609 31.6687 31.6687C32.1609 31.1764 32.4375 30.5087 32.4375 29.8125V16.6875Z" fill="#1E1EBE"/>
</svg>
