<svg width="29" height="37" viewBox="0 0 29 37" fill="none" xmlns="http://www.w3.org/2000/svg">
<path fill-rule="evenodd" clip-rule="evenodd" d="M3.28125 0H9.1875C10.928 0 12.5972 0.691404 13.8279 1.92211C15.0586 3.15282 15.75 4.82202 15.75 6.5625V9.84375C15.75 11.6568 17.22 13.125 19.0313 13.125H22.3125C24.053 13.125 25.7222 13.8164 26.9529 15.0471C28.1836 16.2778 28.875 17.947 28.875 19.6875V33.4688C28.875 35.28 27.405 36.75 25.5938 36.75H3.28125C2.41101 36.75 1.57641 36.4043 0.961056 35.7889C0.345702 35.1736 0 34.339 0 33.4688V3.28125C0 1.46825 1.47 0 3.28125 0ZM15.75 18.375C15.75 18.0269 15.6117 17.6931 15.3656 17.4469C15.1194 17.2008 14.7856 17.0625 14.4375 17.0625C14.0894 17.0625 13.7556 17.2008 13.5094 17.4469C13.2633 17.6931 13.125 18.0269 13.125 18.375V22.3125H9.1875C8.8394 22.3125 8.50556 22.4508 8.25942 22.6969C8.01328 22.9431 7.875 23.2769 7.875 23.625C7.875 23.9731 8.01328 24.3069 8.25942 24.5531C8.50556 24.7992 8.8394 24.9375 9.1875 24.9375H13.125V28.875C13.125 29.2231 13.2633 29.5569 13.5094 29.8031C13.7556 30.0492 14.0894 30.1875 14.4375 30.1875C14.7856 30.1875 15.1194 30.0492 15.3656 29.8031C15.6117 29.5569 15.75 29.2231 15.75 28.875V24.9375H19.6875C20.0356 24.9375 20.3694 24.7992 20.6156 24.5531C20.8617 24.3069 21 23.9731 21 23.625C21 23.2769 20.8617 22.9431 20.6156 22.6969C20.3694 22.4508 20.0356 22.3125 19.6875 22.3125H15.75V18.375Z" fill="#1E1EBE"/>
<path d="M17.9375 6.18748C17.9405 3.97993 17.1456 1.84567 15.6992 0.177979C18.6275 0.947916 21.2987 2.48181 23.4397 4.62278C25.5806 6.76375 27.1145 9.43497 27.8845 12.3632C26.2168 10.9168 24.0825 10.1219 21.875 10.125H18.5937C18.4197 10.125 18.2528 10.0558 18.1297 9.93277C18.0066 9.8097 17.9375 9.64278 17.9375 9.46873V6.18748Z" fill="#1E1EBE"/>
</svg>
