<svg width="30" height="38" viewBox="0 0 30 38" fill="none" xmlns="http://www.w3.org/2000/svg">
<path d="M3.84375 0.625C2.03075 0.625 0.5625 2.095 0.5625 3.90625V34.0938C0.5625 35.905 2.0325 37.375 3.84375 37.375H26.1563C27.9675 37.375 29.4375 35.905 29.4375 34.0938V20.3125C29.4375 18.572 28.7461 16.9028 27.5154 15.6721C26.2847 14.4414 24.6155 13.75 22.875 13.75H19.5938C18.7235 13.75 17.8889 13.4043 17.2736 12.7889C16.6582 12.1736 16.3125 11.339 16.3125 10.4688V7.1875C16.3125 5.44702 15.6211 3.77782 14.3904 2.54711C13.1597 1.3164 11.4905 0.625 9.75 0.625H3.84375Z" fill="#1E1EBE"/>
<path d="M16.6992 1.17804C18.1456 2.84573 18.9405 4.98 18.9375 7.18754V10.4688C18.9375 10.831 19.2315 11.125 19.5937 11.125H22.875C25.0825 11.122 27.2168 11.9169 28.8845 13.3633C28.1145 10.435 26.5806 7.76381 24.4397 5.62284C22.2987 3.48187 19.6275 1.94798 16.6992 1.17804Z" fill="#1E1EBE"/>
</svg>
