<svg width="32" height="38" viewBox="0 0 32 38" fill="none" xmlns="http://www.w3.org/2000/svg">
<path fill-rule="evenodd" clip-rule="evenodd" d="M25.9102 3.4565C26.3039 3.48275 26.6977 3.5125 27.0879 3.544C29.7829 3.7715 31.7499 6.057 31.7499 8.69075V25.5643C31.7499 26.9566 31.1968 28.292 30.2123 29.2766C29.2277 30.2611 27.8923 30.8143 26.4999 30.8143V26.875C26.4999 16.5115 18.4919 8.01875 8.32794 7.24525C8.89494 5.26425 10.6029 3.72775 12.7869 3.54575C13.1789 3.5125 13.5709 3.48275 13.9647 3.4565C14.4077 2.603 15.0766 1.88757 15.8984 1.38825C16.7202 0.888928 17.6633 0.62491 18.6249 0.625H21.2499C22.2116 0.62491 23.1547 0.888928 23.9765 1.38825C24.7983 1.88757 25.4672 2.603 25.9102 3.4565ZM15.9999 5.875C15.9999 5.17881 16.2765 4.51113 16.7688 4.01885C17.2611 3.52656 17.9288 3.25 18.6249 3.25H21.2499C21.9461 3.25 22.6138 3.52656 23.1061 4.01885C23.5984 4.51113 23.8749 5.17881 23.8749 5.875H15.9999Z" fill="#1E1EBE"/>
<path d="M0.250061 13.0938C0.250061 11.2808 1.72006 9.8125 3.53131 9.8125H4.18756C5.92804 9.8125 7.59724 10.5039 8.82795 11.7346C10.0587 12.9653 10.7501 14.6345 10.7501 16.375V19.6563C10.7501 21.4693 12.2201 22.9375 14.0313 22.9375H17.3126C18.1744 22.9375 19.0277 23.1072 19.8239 23.437C20.6201 23.7668 21.3436 24.2502 21.953 24.8596C22.5623 25.469 23.0457 26.1924 23.3755 26.9886C23.7053 27.7848 23.8751 28.6382 23.8751 29.5V34.0938C23.8751 35.905 22.4051 37.375 20.5938 37.375H3.53131C2.66107 37.375 1.82647 37.0293 1.21112 36.4139C0.595763 35.7986 0.250061 34.964 0.250061 34.0938V13.0938Z" fill="#1E1EBE"/>
<path d="M13.375 16.375C13.378 14.1674 12.5831 12.0332 11.1367 10.3655C14.065 11.1354 16.7362 12.6693 18.8772 14.8103C21.0181 16.9513 22.552 19.6225 23.322 22.5507C21.6543 21.1043 19.52 20.3094 17.3125 20.3125H14.0312C13.8572 20.3125 13.6903 20.2433 13.5672 20.1203C13.4441 19.9972 13.375 19.8303 13.375 19.6562V16.375Z" fill="#1E1EBE"/>
</svg>
