<svg width="28" height="34" viewBox="0 0 28 34" fill="none" xmlns="http://www.w3.org/2000/svg">
<path d="M25.716 0.357483H3.27224C0.290236 0.357483 -0.105264 2.77248 0.069736 3.97998V29.39C0.069736 32.099 2.39724 33.3012 3.56099 33.5637C10.981 33.5987 25.9837 33.6477 26.6347 33.5637C27.4485 33.4587 27.9472 32.3825 27.7635 31.5425C27.6165 30.8705 26.8447 30.5975 26.4772 30.545H3.95474V28.235H25.716C27.081 28.235 27.7722 26.7475 27.9472 26.0037V2.82498C27.9472 1.08198 26.4597 0.453733 25.716 0.357483Z" fill="#1E1EBE"/>
<rect x="8.39111" y="8.62622" width="12.705" height="2.5725" rx="1.28625" fill="#D9D9D9"/>
<rect x="2.87854" y="27.9462" width="24.78" height="2.8875" rx="1.44375" fill="#D9D9D9"/>
</svg>
