<svg width="18" height="19" viewBox="0 0 18 19" fill="none" xmlns="http://www.w3.org/2000/svg">
<path fill-rule="evenodd" clip-rule="evenodd" d="M8.99998 7.79998C9.95475 7.79998 10.8704 7.42069 11.5456 6.74556C12.2207 6.07043 12.6 5.15476 12.6 4.19998C12.6 3.2452 12.2207 2.32952 11.5456 1.65439C10.8704 0.97926 9.95475 0.599976 8.99998 0.599976C8.0452 0.599976 7.12952 0.97926 6.45439 1.65439C5.77926 2.32952 5.39998 3.2452 5.39998 4.19998C5.39998 5.15476 5.77926 6.07043 6.45439 6.74556C7.12952 7.42069 8.0452 7.79998 8.99998 7.79998ZM0.599976 18.6C0.599976 17.4969 0.817248 16.4046 1.23939 15.3854C1.66153 14.3663 2.28027 13.4403 3.06028 12.6603C3.84029 11.8803 4.7663 11.2615 5.78543 10.8394C6.80457 10.4172 7.89687 10.2 8.99998 10.2C10.1031 10.2 11.1954 10.4172 12.2145 10.8394C13.2337 11.2615 14.1597 11.8803 14.9397 12.6603C15.7197 13.4403 16.3384 14.3663 16.7606 15.3854C17.1827 16.4046 17.4 17.4969 17.4 18.6H0.599976Z" fill="#E2E2E2"/>
</svg>
