<svg width="129" height="81" viewBox="0 0 129 81" fill="none" xmlns="http://www.w3.org/2000/svg">
<path d="M9.08786 89.7334C9.08786 89.7334 9.54163 74.2183 18.9748 71.5043C28.4081 68.7903 37.3157 81.6121 46.7489 78.8982C56.1821 76.1842 56.914 60.589 66.3472 57.875C75.7804 55.161 84.688 67.9828 94.1212 65.2689C103.554 62.5549 98.0867 48.7434 113.72 44.2457C129.352 39.748 144.962 44.9738 144.962 44.9738" stroke="#1E1EBE" stroke-opacity="0.5" stroke-width="0.5" stroke-linecap="round"/>
<path d="M8.31612 82.9747C8.31612 82.9747 4.9979 60.9434 15.3788 56.6157C25.7597 52.2879 39.3798 70.0244 49.7607 65.6966C60.1416 61.3688 57.1295 39.21 67.5104 34.8822C77.8913 30.5544 91.5114 48.2909 101.892 43.9631C112.273 39.6354 102.439 20.3208 119.642 13.1487C136.845 5.97669 156.434 12.5985 156.434 12.5985" stroke="#1E1EBE" stroke-opacity="0.5" stroke-width="0.5" stroke-linecap="round"/>
</svg>
